<?xml version="1.0" encoding="UTF-8"?>
<svg id="Layer_1" data-name="Layer 1" xmlns="http://www.w3.org/2000/svg" viewBox="0 0 450 350">
  <defs>
    <style>
      .cls-1 {
        fill: #fff;
      }
    </style>
  </defs>
  <g id="Group_152" data-name="Group 152">
    <path id="Path_123" data-name="Path 123" class="cls-1" d="m341.41,156c-.78.04-1.56.12-2.34.12-10.25.03-20.5.03-30.75.07-1.67,0-3.47-.07-3.79,2.27-.17,1.26.12,2.16,1.61,2.21.92.03,1.83.07,2.75.07,14,.07,28,.07,41.99.23,5.16.09,10.31.48,15.43,1.17-1.73.32-3.48.54-5.23.67-19.56.5-39.13.96-58.69,1.4-.83.02-1.89-.14-2.42.3-.82.7-1.39,1.65-1.63,2.7-.07.35,1.27,1.42,2.01,1.45,4.66.2,9.33.16,13.99.3,1.91.06,3.82.25,5.7.56,2.68.23,4.66,2.59,4.43,5.27,0,.04,0,.07-.01.11-.17,2.5-1.96,3.93-5.06,3.99-2.42.04-4.84-.07-7.24.15-.87.19-1.58.8-1.9,1.63-.2,1.04-.66,2.54,1.32,2.89,2.14.38,3.77,1.55,3.71,3.97-.06,2.02-2.32,3.59-4.92,3.65-.83-.04-1.67-.02-2.5.04-3.05.58-6.13-.82-7.7-3.5-2.29-3.46-5.48-4.56-9.45-4.16-2.48.25-5.01.12-7.48.42-.68.08-1.24,1.12-1.85,1.72.62.59,1.19,1.6,1.87,1.68,2.07.22,4.16.26,6.24.11,2.37-.19,4.67.82,6.13,2.69,1.58,1.82,3.32,3.51,4.98,5.26,2.55,2.69,2.76,5.99.54,8.2-2.91,2.9-6.42,3.12-9.28.74-.56-.47-2.06-.79-2.26-.52-.52.76-.74,1.68-.65,2.6.07.63.78,1.24,1.31,1.75,1.44,1.38,1.28,2.71.1,4.16-2.1,2.59-3.27,2.46-5.49-.11-3.48-4.02-7.14-7.9-10.85-11.72-.52-.54-2.25-.83-2.53-.5-.57.82-.8,1.84-.63,2.82.32.85.86,1.61,1.57,2.18,2.52,2.66,5.13,5.24,7.62,7.93,1.71,1.85,2.13,6.36.77,8.44-1.15,1.75-2.47,2.92-4.98,1.97-3.1-1.18-3.92-.34-3.6,2.94.09.89.29,2.07-.17,2.64-.86,1.07-2.91,2.71-3.14,2.51-1.51-1.18-2.75-2.68-3.63-4.38-.55-1.16.08-2.83-.23-4.18-.18-.8-1.18-1.4-1.81-2.1-.6.7-1.68,1.37-1.73,2.1-.2,3.41-.09,6.83-.13,10.24-.03,2.3-1.31,4.17-2.88,3.97-2.29-.29-2.83-1.96-2.78-4.01.06-2-.17-4.02.04-6,.33-2.7-.8-5.37-2.98-7-4.39-3.55-8.89-6.96-13.45-10.29-4.77-3.48-9.7-6.72-14.48-10.18-2.8-2.03-4.03-2.2-6.56.13-3.25,2.86-6.33,5.9-9.25,9.1-3.34,3.82-8.11,5.07-12.19,7.54-3.62,2.18-7.32,4.23-10.87,6.52-1.85,1.24-2.84,3.41-2.56,5.62.24,2.82.21,5.66-.08,8.48-.24,1.84-1.04,3.56-2.3,4.92-1.87,1.84-4.39,2.98-6.47,4.62-2.86,2.08-5.53,4.41-7.99,6.94-3.2,3.57-4.99,3.42-7.41-.76-1.41-2.13-3.08-4.08-4.98-5.79-2.62-2.63-2.74-3.68-.4-6.57,1.43-1.61,2.72-3.33,3.86-5.16.43-.78-.12-2.1-.23-3.18-1.02.22-2,.62-2.89,1.17-1.5,1.44-2.92,2.96-4.26,4.56-1.52,1.7-3.1,1.6-4.37-.11-1.78-2.4-3.43-4.89-4.92-7.48-.33-.57.09-1.74.46-2.49.43-.88,1.41-1.52,1.72-2.42.31-.89.24-1.86-.17-2.7-.28-.43-1.67-.49-2.39-.24-2.68.96-5.63-.43-6.59-3.11-.12-.34-.21-.7-.26-1.06-.07-.5-.07-1-.03-1.5.41-3.82-.17-7.14-3.5-9.77-1.2-.96-1.57-3.01-2.21-4.62-.57-1.44-.89-2.99-1.51-4.42-.86-1.99-.3-3.93,1.81-4.3,4.21-.74,7.25-3.18,10.02-6.13,1.79-2.02,4.43-3.08,7.12-2.87,3.33.16,6.66.03,10-.02,1.29-.02,2.53-.11,2.5-1.97s-1.32-1.93-2.58-1.92c-4.75.05-9.5.04-14.24.33-1.46.21-2.84.82-3.97,1.77-1.88,1.52-3.66,3.15-5.33,4.9-1.94,1.94-4.07,1.47-6.26.71-1.88-.65-2.58-2.04-2.86-3.97-.28-1.38-.81-2.69-1.58-3.87-2.56-4.4-1.84-7.77,2.26-10.79.7-.71,1.29-1.52,1.76-2.4-.96-.45-1.9-.95-2.88-1.34-.9-.36-2.21-.32-2.72-.96-1.47-1.85-3.38-1.88-5.4-1.91-8.58-.13-17.16-.25-25.74-.43-1.51-.03-2.99-.36-4.37-.95.71-.09,1.41-.24,2.12-.26,13.98-.39,27.95-.81,41.93-1.11,1.97-.04,3.18-.51,2.68-2.63-.32-.8-.96-1.45-1.76-1.78-.81-.18-1.65-.22-2.47-.1-2.48-.05-4.62-.82-5.83-3.14-1.33-2.55-1.56-5.36.39-7.51,2.7-2.96,4.09-5.77,2.83-9.99-.82-2.96-.25-6.13,1.56-8.61,1.22-1.74,2.87-2.56,4.68-1.3,3.26,2.27,6.86,2.23,10.54,2.18,3.25-.04,6.51-.22,9.74.02,1.55.09,3.02.69,4.17,1.72,2.96,3.03,5.68,6.28,8.16,9.72,2.3,3.29,4.92,5.17,9.1,4.9,3.65-.24,7.33,0,11-.04,1.43-.01,3.34.41,3.38-1.86.04-2.2-1.76-2.04-3.27-2.04-3.58,0-7.17-.03-10.75.01-1.76.08-3.44-.74-4.47-2.17-3.24-4.01-6.7-7.84-10.04-11.77-1.51-1.93-3.87-3-6.32-2.85-4.74.16-9.5.08-14.25.07-2.73-.01-7.6-3.92-7.99-6.59-.1-1.06.1-2.12.58-3.07,1.17-2.45,2.62-4.77,3.77-7.22,1.24-2.64,2.4-3.2,5.09-2.06,1.11.55,2.26,1.03,3.44,1.43.63.09,1.27-.11,1.73-.54.25-.25.12-1.18-.16-1.58-.74-1-1.55-1.94-2.42-2.83-1.97-2.11-2.13-3.47-.24-5.66,1.67-1.86,3.44-3.62,5.3-5.28,1.23-1.14,2.28-.36,3.23.59,3.07,3.06,6.39,5.9,9.16,9.21,3.38,4.28,8.33,7.02,13.75,7.62,1.94.33,3.71,1.3,5.04,2.75,4.29,4.75,8.28,9.77,12.36,14.7,1.64,2.11,3.96,3.58,6.56,4.16,6.24,1.43,9.53,6.64,13.33,11.13,1.67,1.97,3.11,4.18,5.02,5.86,1.29.98,2.87,1.52,4.49,1.52,14.16.18,28.33.21,42.49.3,1.11.06,2.22.18,3.32.36l.43.72c-1.94,2.3-3.51,5.18-5.93,6.7-1.83,1.15-4.76.51-7.19.76-3.19.34-6.36.77-9.54,1.18-.25.02-.49.11-.69.27-5.52,5.89-12.9,4.84-19.87,5.46-1.63.14-3.18.81-4.4,1.89-2.25,2.43-4.38,4.98-6.37,7.63-.47.58-.91,1.19-1.32,1.82-2.25,4.03-6.72,6.28-11.29,5.69-5.14-.39-10.33.06-15.49-.11-2.86-.19-5.64,1.03-7.44,3.27-4.47,5.15-9.08,10.19-13.49,15.4-2.17,2.56-4.6,3.92-8.02,3.51-1.65-.25-3.33-.21-4.97.09-1.11.28-2.02,1.06-2.49,2.11-.4,1.67,1.17,1.97,2.46,1.98,3.16.18,6.33.12,9.48-.18,1.84-.38,3.52-1.32,4.8-2.7,5.04-5.32,9.89-10.8,14.73-16.3,1.64-2.03,4.16-3.12,6.76-2.94,6.08.2,12.16,0,18.25.06,2.96.19,5.79-1.23,7.39-3.72,2.66-3.82,5.56-7.47,8.67-10.93,1.3-1.21,2.97-1.96,4.74-2.11,3.24-.27,6.49-.3,9.74-.1,2.79.24,5.52-.87,7.36-2.98,1.93-2.23,4.81-3.4,7.75-3.15,3.82.12,7.63-.09,11.41-.62,1.64-.24,3.28-1.51,4.59-2.69,2.04-1.82,3.64-4.14,5.72-5.9,1.21-.97,2.69-1.53,4.24-1.6,7.83-.18,15.67-.02,23.49-.2,4.14-.09,8.27-.8,12.41-.94,8.48-.29,16.96-.39,25.44-.52.54,0,1.08.46,1.62.71-.55.33-1.09.93-1.64.94-6.66.12-13.33.12-19.99.25-1.22.02-3.08-.67-3.04,1.79.04,2.37,1.77,2.02,3.2,2.04,6.58.1,13.16.12,19.75.24,1.7.03,3.39.35,5.09.54l-.02.5Zm-62.86,12.81v-.16c-2.33,0-4.67-.18-6.98.05-2.92.29-6.35.09-8.57,1.58-3.3,2.22-5.77,5.69-8.49,8.71-1.04,1.15-1.34,2.82.1,3.69.64.39,2.37-.23,3.11-.93,2.15-2,3.88-4.46,6.1-6.36,1.27-1.08,2.85-1.71,4.51-1.81,4.06-.26,8.14-.08,12.22-.09,3.16,0,6.32.01,9.48-.05,1.74-.04,2.82-.87,2.83-2.76,0-2.08-1.57-1.84-2.84-1.85-3.82-.05-7.65-.02-11.48-.02m-100-5.85v.18h-2.25c-5.24-.02-10.47-.07-15.71-.07-2.59,0-4.03,1.61-2.81,3.21.82.78,1.91,1.2,3.03,1.17,11.89.13,23.78.15,35.66.18,1.52,0,2.58-.6,2.59-2.33s-1.07-2.33-2.57-2.34c-5.98-.02-11.97,0-17.95,0m-24.75-12.53v.29c1.06.02,2.13-.09,3.18-.31.77-.24,2.04-1.19,1.96-1.48-.29-.94-1.06-2.42-1.71-2.46-4.3-.23-8.61-.23-12.91-.02-.62.03-1.34,1.58-1.63,2.54-.08.26,1.24,1.33,1.95,1.37,3.05.16,6.11.07,9.17.07"/>
    <path id="Path_124" data-name="Path 124" class="cls-1" d="m270.08,142.96c-1.07.09-1.71.2-2.35.2-15.65-.01-31.3-.06-46.96-.03-1.75.16-3.45-.62-4.49-2.03-2.71-3.57-5.54-7.05-8.41-10.5-2.46-2.98-5.87-5.03-9.65-5.82-2.45-.55-4.62-1.98-6.09-4.02-3.73-4.78-7.46-9.57-11.25-14.31-2.22-2.77-4.92-4.61-8.76-4.36-3.05.21-6-1.08-7.92-3.46-3.68-4.17-7.49-8.23-11.31-12.29-1.26-1.34-1.42-2.6-.11-3.91,1.23-1.24,2.54-2.4,3.79-3.61,1.29-1.15,2.52-2.36,3.68-3.63,1.87-2.21,4.2-2.4,6.15-.25.89.98,1.48,2.29,2.48,3.11.91.51,1.91.85,2.94,1.02.27-1.09.48-2.2.61-3.31.03-.4-.47-.85-.77-1.25-2.93-3.87-1.72-7.73,3.01-9.1,2.68-.61,5.14-1.95,7.11-3.85,1.59-1.65,3.52-1.48,4.26.58,2.54,7.08,8.81,10.93,13.55,16.05,2.5,2.7,4.04,5.33,3.64,9.05-.19,1.82-.13,3.67.18,5.47.33.81,1.04,1.4,1.89,1.6.43.08,1.54-1,1.56-1.58.13-3.91.19-7.83-.05-11.73-.24-1.3-.89-2.49-1.85-3.4-3.88-4.13-7.95-8.07-11.81-12.21-2.01-1.98-2.03-5.2-.06-7.21.17-.18.36-.34.55-.49,1.02-.67,2.21-1.04,3.43-1.08,3.27-.18,6.41-.54,9.22-2.51,1.5-1.06,3.58-.71,4.65.79.26.36.44.77.53,1.21,1.3,4.15,3.69,7.87,6.92,10.79,2.16,2.12,3.42,4.33,3.15,7.47-.14,1.6-.51,3.98,2.05,4.03s2.07-2.3,2.28-3.95c.67-4.2-.94-8.45-4.24-11.14-1.51-1.31-2.83-2.83-3.93-4.5-.68-1.06-1.4-2.99-.9-3.72.93-1.38,2.65-2.88,4.19-3.04,4.07-.32,8.15-.4,12.22-.23,2.65.03,5.6,3.09,5.78,5.95.12,1.99-.1,4.02.19,5.98.25.93.93,1.68,1.82,2.02,1.38.34,2.07-.65,2.07-2.08,0-2.5,0-5,.09-7.5.13-3.16,2.05-3.91,4.93-2.71,2.37.91,4.9,1.36,7.44,1.33,2.18-.11,4.28.9,5.55,2.68,1.6,2.09,1.74,3.85-.02,5.82-3.05,3.41-6.18,6.76-9.4,10.01-2.39,2.25-3.71,5.42-3.6,8.71.1,4.41.09,8.83.12,13.25,0,1.26.16,2.32,1.84,2.35,1.64.03,1.95-.94,1.96-2.24.2-3.24.21-6.49.02-9.74-.48-4.51,1.87-7.62,4.56-10.6,2.73-3.03,5.72-5.82,8.43-8.87,1.14-1.29,2.05-2.78,2.67-4.39.87-2.27,2.73-3.09,4.49-1.29,1.84,1.78,4.13,3.03,6.62,3.63,5.2,1.56,6.79,6.91,2.89,10.56-4.43,4.14-5.92,8.88-5.51,14.75.36,5.14.1,10.33.17,15.49.02,1.28-.24,2.85,1.82,2.9,2.02.06,2.59-1.26,2.6-2.92.06-6.17-.07-12.34.17-18.49.2-1.76.85-3.44,1.88-4.88,1.88-2.92,4.16-5.58,6.06-8.48,1.57-2.39,2.38-2.65,4.35-.67,1.13,1.33,2.34,2.59,3.64,3.77,1.38,1.14,2.95,2.01,4.64,2.59,4.12,1.21,5.63,4.63,3.29,8.21-1.44,2.21-3.18,4.24-4.49,6.53-.43.76.09,2.06.17,3.12,1.1-.22,2.5-.09,3.26-.73,2.03-1.71,3.73-3.79,5.65-5.63,1.98-1.9,3.71-1.74,4.71.71,1.79,4.41,4.76,7.91,7.8,11.43,2.02,2.35.85,6.4-2.08,6.32-5.76-.15-7.84,4.32-10.92,7.63-.41.52-.8,1.07-1.15,1.63-2.08,2.83-4.55,4.64-8.4,4.21-2.66-.17-5.33-.13-7.99.1-1.41.06-2.68.44-2.69,2.26-.01,1.96,1.3,2.34,2.84,2.34,4.08,0,8.17.05,12.24-.13,3.49-.15,5.57-2.64,7.65-5.07,1.82-2.26,3.77-4.41,5.86-6.43,2.8-2.48,7.08-2.21,9.55.59.4.46.74.96,1.01,1.51,1.32,2.77,2.54,5.59,3.75,8.41,1.11,2.61.61,3.92-1.98,6.27-1.26,1.14-3.74,1.72-2.84,4.1.89,2.35,3.24,1.49,5.03,1.57,2.92.13,4.11.92,4.2,3.43.09,2.38-1.74,2.97-3.61,3.37-.57.12-1.15.18-1.73.18-16,.14-31.99.23-47.99.43-2.27.17-4.47-.82-5.86-2.62-6.06-7.6-12.37-15.01-18.16-22.8-3.52-4.73-7.86-7.77-13.57-8.32-5.55-.54-10.03-2.48-13.46-6.96-1.48-1.91-3.17-3.65-5.03-5.19-.67-.56-2.02-.32-3.07-.44-.03,1.06-.53,2.53-.02,3.1,3.55,3.96,7.24,7.81,11.08,11.5.85.81,2.43.92,3.71,1.22,3.38.82,7.15.92,10.08,2.54,3.08,1.7,5.64,4.61,7.93,7.4,4.53,5.51,8.72,11.31,13.03,16.99.29.46.54.94.76,1.44"/>
    <path id="Path_125" data-name="Path 125" class="cls-1" d="m222.17,297.85c-.51-1.7-.85-3.45-1.04-5.21-.2-9.41-.33-18.82-.32-28.24.19-2.6-.83-5.15-2.76-6.9-2.26-1.82-3.39-4.69-3-7.56.05-.41.15-.96-.06-1.22-.49-.62-1.14-1.53-1.74-1.54-.78.18-1.41.75-1.66,1.51-.25,2.4-.23,4.83.07,7.22.38,1.43,1.18,2.7,2.3,3.66,1.64,1.44,2.54,3.54,2.43,5.72-.14,7.58-.07,15.16-.18,22.74.05,1.23-.28,2.45-.94,3.5-.65.84-2.22,1.72-3.05,1.47-.98-.3-1.9-1.67-2.3-2.78s-.07-2.47-.16-3.72c-.19-2.55-1.14-3.36-3.69-3.26-.83.03-1.67.08-2.5.07-6.33,0-8.9-3.95-6.48-9.84.57-1.38,1.89-3.22-.02-4.17-1.94-.97-2.5,1.26-3.34,2.49-.28.41-.51.85-.76,1.29-.98,1.72-1.73,3.88-4.43,2.75-2.81-1.18-4.13-3.89-3.25-6.41.37-.74.64-1.53.8-2.35.03-.7-.23-1.77-.71-2.04-.74-.22-1.53-.07-2.13.41-4.87,4.66-4.64,4.47-9.34.07-6.79-6.36-4.44-10.16,2.33-14.59,3.34-2.15,6.47-4.62,9.34-7.36,1.26-1.22,1.86-3.46,2.11-5.32.35-2.68-.12-5.47.19-8.17.14-1.54.86-2.97,2-4.01,3.14-2.3,6.49-4.28,10.01-5.94,6.34-2.84,11.88-6.59,16.16-12.12.43-.51.91-.98,1.42-1.41,2.64-2.45,3-2.41,5.96-.45,8.3,5.52,16.62,11.01,24.96,16.46,2.08,1.15,3.3,3.39,3.15,5.75-.16,7.16-.02,14.33,0,21.49,0,.58.2,1.28-.05,1.73-.69,1.11-1.44,2.18-2.25,3.21-.74-1.05-2.1-2.09-2.11-3.15-.02-2.39.18-4.54-2.41-5.89-.53-.28-.59-1.63-.69-2.5-.18-1.5.37-3.29-2.22-3.28-2.71,0-2.25,1.86-2.26,3.47-.04,8.41-.07,16.83-.09,25.24v1.5c.02,1.72-.43,3.54-2.31,3.52-1.77-.02-2.1-1.77-1.97-3.43.12-.65,0-1.31-.36-1.87-1.92-1.76-1.76-4.01-1.76-6.26-.03-12.16-.07-24.33-.12-36.49,0-1.12.28-2.43-1.48-2.64-1.94-.24-2.92.28-2.9,2.52.09,9,.04,18,.03,26.99.09,1.16.06,2.33-.08,3.49-.11.96-.59,1.84-1.34,2.46-2.31,1.14-2.54,3.04-2.55,5.21-.07,8.5-.08,17-.33,25.49-.24,2.88-.64,5.75-1.21,8.58l-.93.1"/>
  </g>
</svg>