<?xml version="1.0" encoding="utf-8"?>
<!-- Generator: Adobe Illustrator 27.5.0, SVG Export Plug-In . SVG Version: 6.00 Build 0)  -->
<svg version="1.1" id="Layer_1" xmlns="http://www.w3.org/2000/svg" xmlns:xlink="http://www.w3.org/1999/xlink" x="0px" y="0px"
	 viewBox="0 0 500 500" style="enable-background:new 0 0 500 500;" xml:space="preserve">
<style type="text/css">
	.st0{fill:#E5E5E5;}
	.st1{fill:#FFFFFF;}
	.st2{fill:#D2C8E2;}
</style>
<g>
	<path class="st0" d="M462.3,275.4c-0.2,0.6-0.5,1.2-0.6,1.8c-0.8,3-1.8,5.9-3.6,8.5c-1.5,2.3-3.1,4.6-4.9,6.6
		c-1.6,1.9-3.4,3.6-5.4,5.2c-4.3,3.4-8.9,6.4-13.8,8.8c-7,3.4-14.2,6-21.8,7.8c-5.2,1.2-10.5,2.3-15.7,3.3c-2.7,0.5-5.4,0.6-8.1,0.9
		c-0.7,0.1-1.3,0.2-2.1,0.3c0.5,1.6,1.1,3.2,1.5,4.8c1.6,6.4,3.2,12.9,4.7,19.3c0.7,2.7,1.2,5.5,1.7,8.3c0.4,2.1,0.6,4.3,0.7,6.4
		c0.3,3.7,0.7,7.4,0.7,11.1c0,3.7-0.1,7.5-0.5,11.2c-0.2,2.9-0.6,5.8-1.4,8.5c-1.5,5.3-3.3,10.5-6.9,14.9c-2.4,2.9-5.3,5-9,5.6
		c-3.2,0.4-6.2-0.2-8.9-2.4c-4-3.3-5-7.5-4-12.3c0.5-2.3,1.9-4.3,3.8-5.8c1.4-1.2,2.2-2.7,2.8-4.4c0.6-1.6,1.1-3.2,1.4-4.9
		c0.3-1.7,0.6-3.4,0.6-5.1c0.1-2.7,0.1-5.5-0.2-8.2c-0.3-3.1-0.5-6.3-1.4-9.3c-0.8-2.6-1-5.3-1.6-8c-0.6-2.6-1.1-5.3-1.8-7.8
		c-1.4-4.8-2.9-9.5-4.3-14.2c-0.6-1.9-1.3-3.7-2-5.6c-0.4-1-1-1.6-2.3-1.6c-3.4-0.1-6.8-0.5-10.2-0.9c-3-0.3-6.1-0.6-9.1-1.1
		c-3.3-0.6-6.6-1.2-9.8-2.1c-4.6-1.3-9.2-2.7-13.7-4.4c-2.5-0.9-4.9-2.5-7.3-3.7c-3.1-1.6-5.9-3.7-8.3-6.2c-2.1-2.2-4.2-4.5-5.6-7.2
		c-1.2-2.5-2.1-5.1-2.5-7.8c-0.9-6.3,0.9-12,3.9-17.2c1.9-3.3,4.1-6.4,6.6-9.2c3.5-4.1,7.7-7.4,12.8-9.3c4.5-1.7,9.1-2,13.8-1.4
		c6.7,0.8,12.5,3.7,17.7,7.9c2.5,2,4.9,4.2,7.1,6.5c2,2,3.7,4.3,5.6,6.5c4.3,5.1,7.6,10.7,10.7,16.5c1.6,3,3.3,6.1,4.9,9.1
		c0.4,0.7,0.7,1.1,1.6,1c4.9-0.5,9.7-0.7,14.6-1.4c5.1-0.7,10.2-1.7,15.2-2.8c5.9-1.3,11.6-3.4,17-6.2c3.9-1.9,7.2-4.6,10.2-7.7
		c2-2.1,3.2-4.7,4-7.5c1.3-4.5,4.1-7.4,8.8-8.3c3.3-0.6,6.3-0.1,9.2,1.8c2.5,1.6,3.9,3.8,4.7,6.6c0.1,0.3,0.3,0.6,0.4,0.9
		C462.3,272.7,462.3,274.1,462.3,275.4z M350.2,295.2c-0.2-0.4-0.3-0.7-0.4-0.9c-3.1-5.4-6.5-10.6-10.8-15.2c-2.4-2.6-4.8-5.3-8-6.8
		c-3.3-1.6-5.1-1.9-8.1,1.2c-1.1,1.1-2.1,2.5-3,3.8c-0.8,1.1-1.6,2.3-2.1,3.5c-0.6,1.4-0.4,2.9,0.8,3.8c2,1.5,4,3,6.2,4
		c5.4,2.6,11.2,4,17,5.1C344.5,294.2,347.2,294.7,350.2,295.2z"/>
	<path class="st1" d="M249.2,471.2c-0.9-0.1-1.9-0.3-2.8-0.4c-4.2-0.5-7.7-2.4-11-5c-2.7-2.1-4.6-4.7-6.1-7.7c-1.2-2.4-1.8-5-2-7.7
		c-0.4-4.3,0.4-8.4,2.5-12.2c0.9-1.6,2.2-3,3.3-4.5c1.6-2.1,3.8-3.5,6-4.7c2.2-1.2,4.6-2.1,7.1-2.3c1.4-0.1,2.9-0.4,4.3-0.4
		c5.7,0.1,10.7,2.1,15,5.9c4.1,3.5,6.4,8,7.2,13.2c1,7.3-1,13.8-6.2,19c-3,3-6.7,5.1-10.8,6.2c-1.1,0.3-2.3,0.3-3.4,0.5
		c-0.4,0.1-0.9,0.2-1.3,0.3C250.4,471.2,249.8,471.2,249.2,471.2z"/>
	<path class="st1" d="M276.6,329c-0.5,8.7-2.5,17.1-5.4,25.3c-1.3,3.7-2.8,7.4-4.4,10.9c-1.4,3.2-3.1,6.2-4.7,9.4
		c-0.3,0.6-0.4,1,0.1,1.6c2,2.2,3.9,4.5,5.8,6.6c2.6,2.8,5.2,5.7,8,8.4c3.5,3.4,7.1,6.8,10.8,10c3.3,2.8,6.7,5.5,10.4,7.9
		c3.4,2.2,7,4.1,10.6,5.8c2.7,1.3,5.6,2.1,8.7,1.9c1-0.1,2.1-0.2,3.1-0.5c3.7-0.9,7.3-0.7,10.5,1.4c2.4,1.6,4.1,3.8,4.7,6.6
		c1,4.4,0,8.4-3.5,11.4c-1.5,1.3-3.5,2.1-5.4,2.7c-2.8,1-5.9,1.3-8.8,1c-2.8-0.3-5.5-0.9-8.3-1.4c-4.9-1-9.5-3-13.9-5.2
		c-5.8-2.9-11.4-6.1-16.5-10.2c-1.9-1.5-4-2.9-6-4.4c-1.5-1.1-2.9-2.3-4.4-3.6c-2.6-2.2-5.2-4.5-7.7-6.8c-2.6-2.4-5.2-5-7.7-7.5
		c-1.3-1.3-2.5-2.7-3.8-4.1c-1.2,1.6-2.2,3.1-3.4,4.5c-3.2,3.9-6.4,7.8-9.8,11.5c-2.8,3.1-5.9,6.1-9,8.8c-4.7,4.1-9.6,8.1-15.1,11.1
		c-2.7,1.5-5.4,3.1-8.3,4.3c-3.9,1.6-8,3.2-12.3,3.6c-2.6,0.3-5.3,0.7-7.9,0.6c-3.7,0-7.4-0.6-10.9-2c-4.1-1.6-7-5.8-7-10.2
		c0-4.2,1.4-7.5,4.8-9.8c3.1-2.1,6.6-2.6,10.3-1.6c3.8,1.1,7.4,0.8,11.1-0.3c3.9-1.1,7.2-3.2,10.6-5.2c3.3-2,6.1-4.5,8.9-7.1
		c0.9-0.8,2-1.5,2.8-2.4c1.4-1.3,2.7-2.7,3.9-4.1c1.5-1.7,3-3.5,4.4-5.4c2.8-3.6,5.6-7.1,8.3-10.7c1.1-1.5,2.1-3.1,3-4.5
		c-2.6-4.1-5.2-8-7.6-12.1c-2.1-3.6-4.2-7.2-6-10.9c-2.6-5.3-4.6-10.8-6-16.5c-0.5-1.9-1.1-3.9-1.3-5.9c-0.2-3-0.1-6.1-0.1-9.2
		c0-1.2,0.2-2.4,0.5-3.5c1.2-4.2,2.6-8.3,5.5-11.8c1.4-1.6,2.9-3.2,4.5-4.5c3.8-2.9,8-4.8,12.7-5.8c4.6-1,9.3-1.5,14.1-1.3
		c5.2,0.2,10.2,1.3,14.8,4.1c4.7,2.9,7.7,7,9.7,12c1.3,3.3,2.2,6.8,2.3,10.4c0,0.5,0.2,1,0.2,1.5C276.6,325.6,276.6,327.3,276.6,329
		z M246.2,353.7c0.1-0.1,0.2-0.2,0.2-0.3c2.8-6.6,5-13.5,6.2-20.6c0.6-3.5,0.9-6.9,0.2-10.3c-0.3-1.6-0.7-3-3-3.2
		c-1.5-0.2-3.1-0.3-4.6-0.1c-2,0.2-4,0.6-5.9,1.2c-1.2,0.3-2.2,1.1-2.8,2.4c-0.8,1.8-1,3.6-0.7,5.5c0.7,5.2,2.4,10,4.5,14.8
		C242,346.7,243.7,350.4,246.2,353.7z"/>
	<path class="st1" d="M115.2,165.3c-0.9-2-1.8-4-2.5-5.9c-1.5-4-3.1-8.1-4.5-12.2c-1.2-3.4-2.3-6.8-3.1-10.3
		c-0.8-3.3-1.4-6.7-1.9-10.1c-0.4-2.5-0.8-4.9-0.9-7.4c-0.2-2.6,0-5.2,0-7.8c0-4.8,0.8-9.5,2-14.1c1.4-5.1,3.9-9.6,7.2-13.7
		c1.4-1.8,3-3.5,4.8-4.8c3.5-2.5,7.5-2.6,11.5-1.1c4.6,1.7,7.3,6.6,7,11.1c-0.2,3-1.3,5.7-3.5,7.7c-3.9,3.6-5.9,8.1-6.2,13.4
		c-0.2,2.6-0.4,5.2-0.2,7.8c0.4,3.8,0.9,7.6,1.8,11.3c1.9,7.7,4.6,15,7.8,22.2c1.2,2.6,2.4,5.2,3.7,7.8c0.4,0.8,0.9,1.6,1.4,2.3
		c0.2,0.2,0.7,0.3,1,0.3c5.3-0.2,10.7-0.5,16-0.5c8.2,0,16.3,0.7,24.3,2.7c6.5,1.6,12.6,3.9,18,7.8c5.4,3.9,9.2,8.9,10.9,15.4
		c0.9,3.3,1,6.6,0.7,10c-0.5,5.1-2.2,9.8-4.5,14.4c-0.9,1.9-1.9,3.9-3.2,5.6c-2.7,3.6-5.6,7.1-9.7,9.2c-2.7,1.5-5.7,2.4-8.8,2.8
		c-4,0.6-7.9,0-11.8-1c-4.1-1.1-7.9-2.9-11.5-5.2c-2.3-1.5-4.7-3.1-6.9-4.8c-1.9-1.5-3.7-3-5.4-4.7c-3-3.1-5.9-6.4-8.9-9.5
		c-3.7-3.8-6.7-8.3-9.7-12.6c-1-1.4-2-2.8-3-4.2c-0.2-0.2-0.6-0.4-0.8-0.3c-6.3,1.3-12.6,2.4-18.8,3.9c-7.3,1.7-14.4,3.9-21.4,6.6
		c-3.8,1.5-7.4,3.3-11.1,5.1c-3.6,1.8-6.7,4.1-9.5,6.9c-2.1,2-3.2,4.4-4,7.2c-1.1,4.1-3.9,6.6-8,7.8c-4.3,1.2-8.2,0.1-11.5-2.7
		c-1.7-1.5-2.7-3.5-3.2-5.8c-0.6-2.7,0-5.2,0.7-7.8c1.1-3.6,3.2-6.5,5.5-9.3c1.3-1.6,2.6-3.1,4-4.4c3.8-3.6,8-6.7,12.6-9.3
		c3.8-2.2,7.7-4.3,11.6-6.2c6.9-3.3,14-6,21.3-8.1c6.4-1.9,12.9-3.4,19.4-5.1C114.5,165.4,114.8,165.4,115.2,165.3z M153.9,184.2
		c2.5,2.9,4.8,5.5,7.2,8.2c4,4.4,8.2,8.5,13.4,11.4c1.3,0.8,2.8,1.4,4.2,1.9c2.2,0.7,3.8,0.3,4.8-1.7c1.4-2.5,2.6-5.1,3.5-7.8
		c1-2.9,0.2-4.9-2.5-6.5c-1.9-1.2-4.1-2.1-6.2-2.7C170.5,184.5,162.4,184,153.9,184.2z"/>
	<path class="st0" d="M113.9,318.5c-1.7-0.2-3.3-0.3-5-0.5c-1.9-0.2-3.8-0.5-5.7-0.8c-2.4-0.4-4.9-0.8-7.3-1.2
		c-2.6-0.5-5.3-1.1-7.9-1.8c-6.9-1.8-13.6-4-20-7c-4.9-2.3-9.5-4.9-13.7-8.2c-1.9-1.5-3.8-2.9-5.4-4.6c-1.8-1.9-3.4-4-5-6.1
		c-2.3-2.9-3.8-6.2-4.8-9.7c-0.5-1.7-1.1-3.6-1.1-5.3c0-3.3,1.2-6.2,3.8-8.4c3.4-2.9,7.2-3.6,11.4-2.5c4.3,1.2,6.9,4,8,8.3
		c0.7,2.8,2.1,5.3,4.1,7.5c4,4.5,9,7.3,14.4,9.6c5.3,2.3,10.8,3.8,16.4,5c3.7,0.8,7.5,1.3,11.3,1.8c3.5,0.5,7,0.8,10.4,1.1
		c1.5,0.1,3.1,0.2,4.6,0.3c0.6,0,0.8-0.2,1.1-0.7c1.4-2.9,2.7-5.9,4.3-8.6c2.9-4.9,6-9.7,9.2-14.5c1.9-2.8,4.1-5.4,6.3-7.9
		c2.2-2.6,4.7-4.9,7.4-7c2.7-2.1,5.4-4.1,8.4-5.6c5.4-2.7,11.2-3.9,17.2-3.4c5.6,0.5,10.4,2.7,14.9,6.2c4.7,3.6,8,8.4,11.1,13.3
		c2.2,3.4,3.7,7,4.3,11c0.3,2.1,0.1,4.3,0.1,6.4c0,2.4-0.8,4.5-1.7,6.7c-1,2.7-2.9,4.8-4.7,7c-2.2,2.7-4.8,5-7.7,6.8
		c-3.8,2.3-7.6,4.5-11.9,5.9c-2.9,0.9-5.8,2.1-8.8,2.9c-4.4,1.1-8.8,2-13.2,2.8c-3.2,0.6-6.5,1-9.8,1.3c-2.1,0.2-4.3,0.3-6.4,0.4
		c-1.2,0.1-2.3,0.1-3.5,0.3c-0.2,0-0.5,0.3-0.6,0.6c-3.3,8.6-6,17.3-8.1,26.3c-0.7,2.9-1.3,5.8-1.8,8.7c-0.6,3.5-1.4,7-1.7,10.5
		c-0.4,5.7-0.7,11.4,1.1,17c0.8,2.4,2,4.7,4,6.5c4.7,4.2,5.1,11.7,0.8,16.4c-2.2,2.4-5,3.5-8.2,3.7c-2.9,0.1-5.5-0.6-7.7-2.3
		c-1.8-1.5-3.4-3.3-4.7-5.3c-2.2-3.1-3.4-6.6-4.7-10.1c-1-2.8-1.4-5.6-2-8.4c-0.3-1.6-0.4-3.4-0.4-5.1c-0.1-3.5-0.2-7.1-0.2-10.7
		c0-2.2,0.2-4.3,0.4-6.5c0.1-1.9,0.2-3.8,0.5-5.7c0.3-2.2,0.5-4.4,0.9-6.6c0.7-3.6,1.5-7.2,2.4-10.8c1-4.1,2.1-8.3,3.2-12.4
		c0.5-1.9,1.2-3.8,1.7-5.8C113.9,318.9,113.9,318.7,113.9,318.5z M150.1,294.7c0.1,0.2,0.2,0.3,0.4,0.5c4.3-0.8,8.6-1.5,12.8-2.5
		c6.4-1.5,12.6-3.3,17.9-7.5c1.7-1.4,2.5-3,1.3-4.9c-1.3-2.2-2.8-4.1-4.3-6.2c-0.5-0.7-1.2-1.2-1.9-1.8c-1.4-1.1-3-1.5-4.7-0.8
		c-1.5,0.6-3.1,1.4-4.4,2.3c-3.6,2.6-6.5,5.9-9.2,9.4C155.1,286.9,152.7,290.9,150.1,294.7z"/>
	<path class="st0" d="M249,89.7c1.8-1.9,3.6-3.9,5.5-5.7c3.6-3.5,7.3-7.1,11.1-10.4c3.5-3,7.1-5.9,10.7-8.6
		c3.3-2.5,6.7-4.8,10.2-6.9c6.7-4,13.6-7.6,21.1-9.7c2.8-0.7,5.7-1.1,8.6-1.5c3.8-0.6,7.5-0.1,11.2,1.1c4.1,1.4,6.8,4.1,7.6,8.4
		c0.8,4.4-0.2,8.4-3.9,11.3c-3.1,2.4-6.7,3.3-10.6,2.3c-3.1-0.8-6.2-0.8-9.3,0.1c-4.3,1.2-8.3,3.2-12,5.7c-3.8,2.6-7.6,5.3-11.2,8.2
		c-3.6,3-7.1,6.1-10.5,9.4c-3.7,3.6-7.2,7.5-10.8,11.3c-1.6,1.7-3.1,3.4-4.6,5.2c-0.2,0.3-0.3,0.9-0.2,1.2c1.2,2.6,2.6,5.2,3.8,7.8
		c1.8,3.9,3.7,7.8,5,11.9c1.7,5.1,3.1,10.3,4.4,15.5c0.7,2.9,0.8,5.9,1.2,8.9c0.2,1.3,0.5,2.6,0.4,3.9c-0.2,2.7-0.5,5.3-0.8,8
		c-0.4,3.8-1.8,7.2-3.6,10.5c-2,3.7-4.8,6.6-8.4,8.8c-2.6,1.5-5.4,2.5-8.2,3.2c-1.5,0.3-3.1,0.4-4.6,0.5c-1.6,0.1-3.1,0.3-4.7,0.2
		c-4.7-0.2-9.4-0.7-13.9-2.2c-2.8-0.9-5.5-2.3-8-3.9c-4.8-3.2-8-7.6-10.2-12.9c-1.9-4.7-2.4-9.5-2.2-14.4c0.2-3.6,1.2-7.1,2.1-10.5
		c2-7.6,5.1-14.7,9-21.5c3-5.2,6.5-10.2,9.8-15.3c0.3-0.4,0.4-0.7,0-1.2c-2.9-4.1-5.7-8.3-8.8-12.3c-2.1-2.8-4.5-5.4-6.9-8
		c-2.2-2.4-4.4-4.7-6.8-6.8c-5.1-4.6-10.6-8.7-17.1-11.2c-4.4-1.7-9-2.3-13.7-0.9c-2.9,0.9-5.8,0.4-8.7-1c-3.5-1.7-5.3-4.7-5.9-8.2
		c-0.6-3.2,0.2-6.3,2.2-9c2.4-3.2,5.9-4.2,9.5-4.8c2.9-0.5,5.8-0.7,8.7-0.7c5.6,0.1,11,1.5,16.2,3.6c3.7,1.5,7.1,3.4,10.5,5.3
		c3.8,2.2,7.2,4.7,10.5,7.5c3.1,2.6,6.2,5.3,9.1,8.1c4.5,4.3,8.6,9,12.3,13.9C245.7,85.9,247.3,87.7,249,89.7z M246.3,132.1
		c-0.7,1-1.5,1.9-2,2.9c-1.6,3.1-3.2,6.2-4.6,9.5c-2.2,5.1-4.2,10.4-3.9,16.1c0.1,2.8,0.7,4.2,3.6,5.3c3.1,1.2,6.4,1.3,9.7,1.1
		c1.7-0.1,3.1-0.8,3.5-2.6c0.3-1.2,0.5-2.4,0.5-3.6c0.2-3.9-0.4-7.6-1.3-11.4C250.6,143.4,248.6,137.7,246.3,132.1z"/>
	<path class="st1" d="M385,165.3c1.8,0.4,3.5,0.8,5.2,1.2c4.4,1.2,8.8,2.3,13.2,3.5c7.4,2.1,14.7,4.8,21.7,8c3.5,1.7,7,3.3,10.4,5.3
		c4.1,2.4,8.1,5,11.9,7.8c3.5,2.6,6.5,6,9.2,9.6c2.1,2.8,3.6,5.8,4.4,9.2c1,4.3,0.2,8.3-3.1,11.3c-4.4,4-10.4,4.5-15.2,1.2
		c-2.4-1.7-4-4.1-4.5-7c-0.4-2.2-1.6-4-3.1-5.6c-2.6-2.8-5.5-5.2-8.8-7c-3.9-2-7.9-3.8-12-5.6c-2.5-1.1-5.1-2-7.7-2.9
		c-2.8-0.9-5.7-1.8-8.6-2.5c-4.4-1.1-8.8-2.2-13.3-3.2c-3.7-0.8-7.4-1.4-11.1-2.1c-0.2,0-0.6,0.3-0.8,0.5c-1.8,2.6-3.6,5.2-5.5,7.7
		c-2.2,2.9-4.4,5.8-6.8,8.5c-2.6,3-5.1,6-8,8.6c-3.7,3.4-7.5,6.7-11.6,9.5c-5,3.5-10.5,6.1-16.6,7.2c-5.3,1-10.4,0.6-15.4-1.5
		c-4.2-1.8-7.2-4.8-10.1-8.2c-2.4-2.9-4.1-6.1-5.7-9.4c-1.6-3.4-2.9-6.9-3.3-10.7c-0.3-2.5-0.6-5-0.4-7.4c0.4-4.6,1.9-8.8,4.5-12.6
		c2.8-4.1,6.5-7.2,10.8-9.7c6-3.4,12.5-5.3,19.2-6.4c4.1-0.6,8.3-1.1,12.4-1.3c5.2-0.3,10.5-0.3,15.7-0.2c2.6,0,5.2,0.4,7.8,0.6
		c0.2,0,0.6-0.3,0.7-0.5c1.9-3.8,3.9-7.5,5.6-11.3c1.8-4.2,3.3-8.6,4.9-12.9c2.2-6.2,3.9-12.5,4.2-19.2c0.2-4.3,0.3-8.7-1-12.9
		c-0.9-3-2.5-5.7-4.7-7.8c-2.2-2.2-3.7-4.7-4.1-7.7c-0.4-3,0.6-5.9,2.5-8.3c2.2-2.8,5.1-4.1,8.7-4.3c5.1-0.3,8.6,2.3,11.5,6
		c1.9,2.4,3.5,5.1,5,7.7c3.7,6.5,4.7,13.6,4.9,21c0.2,6.5-0.3,13-1.6,19.3c-0.8,3.8-1.5,7.6-2.7,11.3c-2.1,6.4-4.6,12.6-6.9,18.9
		C386.3,162.5,385.6,163.8,385,165.3z M346,184.4c0-0.1-0.1-0.3-0.1-0.4c-3.5,0.2-7.1,0.3-10.6,0.6c-3.3,0.3-6.6,0.7-9.9,1.3
		c-3.3,0.6-6.6,1.6-9.5,3.5c-2.5,1.7-3.4,3.7-2.8,6.3c0.7,3,2,5.8,3.7,8.4c1.1,1.7,2.5,2.1,4.4,1.5c2.4-0.7,4.7-1.9,6.7-3.4
		c2-1.5,4.1-2.9,5.9-4.5c2.9-2.7,5.6-5.6,8.3-8.5C343.5,187.7,344.7,186,346,184.4z"/>
	<path class="st0" d="M249.9,282.6c-5.2,0.3-10.2-1-14.9-2.9c-4-1.6-7.5-4-10.7-6.9c-2.4-2.1-4.5-4.4-6.1-7.1
		c-1-1.7-2.1-3.5-2.9-5.3c-0.9-2.1-1.7-4.3-2.4-6.5c-1-3.4-1.1-6.9-0.9-10.3c0.1-2.3,0.3-4.6,0.9-6.8c1.5-5.4,3.7-10.6,7.5-15
		c0.9-1,1.6-2.1,2.5-3c1.7-1.5,3.5-3,5.4-4.3c4.4-3.1,9.3-4.9,14.5-5.9c3.6-0.7,7.2-0.7,10.8-0.4c5.4,0.4,10.4,2,15.2,4.5
		c2.8,1.5,5.2,3.5,7.6,5.6c3.5,3,6.1,6.6,8,10.7c1.1,2.3,1.7,4.9,2.7,7.3c1.7,4.1,1.4,8.5,1.1,12.7c-0.3,4.8-2,9.2-4.2,13.5
		c-1.7,3.4-4,6.6-6.8,9.2c-5.1,4.8-11,8.3-17.8,9.9c-3.1,0.8-6.4,0.9-9.6,1.3C249.9,282.9,249.9,282.7,249.9,282.6z"/>
	<path class="st1" d="M93.1,143.7c0.3,13-10.5,22.5-22.8,22.5c-12.4,0-23.3-9.5-22.9-23.5c0.4-11.6,10-21.5,23.1-21.4
		C82.8,121.4,93.5,131,93.1,143.7z"/>
	<path class="st0" d="M250,64.5c-4.9,0-8.9-1.3-12.7-3.7c-5.2-3.3-8.4-8-9.6-14c-1.4-6.8,0-13.1,4.4-18.6c3.2-4,7.2-6.7,12.2-7.8
		c8-1.7,15.1-0.3,21.4,5.3c4,3.5,6.3,7.9,7,13.1c1,7-0.7,13.5-5.8,18.6C262.3,62.2,256.5,64.7,250,64.5z"/>
	<path class="st0" d="M407.1,347c-0.3-12.3,10.2-23.1,24-22.4c11.2,0.6,22.1,9.4,21.7,23.2c-0.4,11.9-10.2,21.5-22.8,21.6
		C417.3,369.5,406.8,359.5,407.1,347z"/>
	<path class="st0" d="M93.1,346.9c0.1,13.3-10.3,21.6-20.9,22.5c-6.4,0.5-12.1-1.3-17-5.6c-5.4-4.7-8-10.7-7.7-17.9
		c0.4-11.4,10-21.9,23.9-21.3C82.9,325.1,93.3,334.2,93.1,346.9z"/>
	<path class="st1" d="M407.1,143.6c-0.1-12.8,10.5-21.3,20.5-22.2c15-1.2,26,10.8,25.3,23.4c-0.7,12.1-10.7,21.4-22.9,21.4
		C417.4,166.2,406.9,156.6,407.1,143.6z"/>
	<path class="st2" d="M276.6,329c0-1.7,0-3.4,0-5.1C277.2,324.6,277.2,328.4,276.6,329z"/>
</g>
</svg>
