<?xml version="1.0" encoding="utf-8"?>
<!-- Generator: Adobe Illustrator 27.4.1, SVG Export Plug-In . SVG Version: 6.00 Build 0)  -->
<svg version="1.1" id="Layer_1" xmlns="http://www.w3.org/2000/svg" xmlns:xlink="http://www.w3.org/1999/xlink" x="0px" y="0px"
	 viewBox="0 0 110 110" style="enable-background:new transparent;" xml:space="preserve">
<style type="text/css">
	.st0{fill:#FEFEFF;}
	.st1{fill:#3B2A70;}
	.st2{fill:#674C99;}
	.st3{fill:#C6B7E6;}
	.st4{fill:#172424;}
</style>
<g>
	<path class="st0" d="M105.1,48.4c0,4.1,0,8.3,0,12.4c-0.1-0.1-0.2-0.1-0.2-0.2c-0.4-0.9-1-1.4-1.9-1.5c-1.1-0.1-2.6,0.3-3,1.6
		c-0.2,0.7-0.6,1.3-1,1.9c-1,1.2-2.4,2-3.8,2.6c-0.5,0.2-1,0.3-1.4,0.5c-0.4,0.2-0.8,0.5-1.3,0.6c-0.8,0.2-1.6,0.4-2.5,0.5
		c-1.4,0.2-2.8,0.3-4.1,0.5c-0.3,0-0.5-0.1-0.7-0.4c-0.7-1.2-1.4-2.3-2-3.5c-1.3-2.2-2.6-4.3-4.7-5.8c-0.8-0.5-1.6-1.1-2.4-1.4
		c-0.8-0.3-1.8-0.3-2.7-0.3c-1.8,0-3.4,0.6-4.6,2c-0.9,1-1.8,2.1-2.3,3.4c-0.1,0.2-0.2,0.3-0.3,0.4c-0.1,0.1-0.1,0.2-0.1,0.2
		c0,0.8,0,1.6-0.1,2.3c0,0.7,0,1.4,0.4,2.1c0.8,1.5,1.9,2.6,3.4,3.4c0.9,0.5,1.9,0.9,2.9,1.3c0.9,0.4,1.8,0.8,2.8,0.6
		c0.1,0,0.1,0.1,0.2,0.1c0.6,0.2,1.2,0.5,1.8,0.6c1,0.2,2,0.2,3,0.3c0.7,0.1,1.3,0.3,1.5,1.2c0.4,1.3,0.8,2.6,1.2,3.9
		c0.9,2.8,1.2,5.6,1.1,8.5c0,0.9-0.2,1.8-0.8,2.6c-0.3,0.4-0.6,0.7-0.8,1.1c-0.6,0.9-0.5,2.2,0.1,3c1.1,1.5,3.1,1.3,4.5,0
		c0.7-0.7,0.9-1.6,1.2-2.4c0.6-1.6,0.9-3.3,0.9-5c0-1.3,0-2.6-0.2-3.9c-0.4-2.5-1-5.1-1.6-7.6c-0.2-0.8,0-1.4,0.7-1.5
		c0.8-0.1,1.6-0.2,2.4-0.4c3.2-0.7,6.3-1.7,9.2-3.3c2.1-1.2,3.7-2.8,4.6-5.1c0.1-0.3,0.3-0.6,0.5-1c0,15.7,0,31.3,0,47
		c-33.1,0-66.2,0-99.4,0c0-36.2,0-72.3,0-108.5c16.2,0,32.4,0,48.6,0c0,0,0.1,0.1,0.1,0.1c-0.2,0.1-0.4,0.2-0.7,0.3
		c-2.2,0.6-3.5,2.8-3.5,4.9c0,0.9,0.2,1.8,0.4,2.7c0,0.1,0.1,0.1,0.1,0.2c0.2,0.2,0.4,0.3,0.5,0.5c1.2,1.3,2.5,2.2,4.3,2.1
		c0.6,0,1.2,0,1.7-0.3c0.7-0.4,1.5-0.8,2-1.4c0.5-0.6,1-1.3,1.2-2.1c0.4-1.4,0.3-2.8-0.4-4.1c-0.6-1.1-1.5-1.9-2.7-2.4
		c-0.1-0.2-0.2-0.3-0.3-0.5c15.9,0,31.8,0,47.8,0c0,15,0,29.9,0,44.9c-0.1,0.2-0.2,0.3-0.3,0.5l0,0l0,0c0-0.1,0-0.1,0-0.2
		c0-0.1,0-0.2-0.1-0.2c-0.4-0.7-0.7-1.4-1.1-2c-1.3-1.9-3.4-3-5.3-4.2c-2.5-1.6-5.4-2.2-8.3-3c-1-0.3-2-0.7-3-1
		c0.2-0.4,0.5-0.7,0.6-1c0.3-0.7,0.5-1.4,0.8-2.1c0.9-2.1,1.4-4.2,1.6-6.5c0.1-1.7,0-3.4-0.1-5.1c-0.2-2-1-3.7-2.3-5.2
		c-0.6-0.7-1.4-1.1-2.3-1.1c-1.1,0-1.7,0.5-2.3,1.3c-0.6,0.9-0.6,1.7,0,2.6c0.1,0.2,0.2,0.4,0.3,0.6c1.7,2,1.8,4.3,1.4,6.7
		c-0.3,1.8-0.9,3.5-1.5,5.2c-0.4,1.1-0.9,2.1-1.4,3.2c-0.1,0.3-0.5,0.5-0.7,0.6C80.1,35,79.2,35,78.3,35c-1.6,0.1-3.2,0.1-4.8,0.2
		c-1.8,0.2-3.5,0.7-5.1,1.6c-2.5,1.5-3.8,3.7-3.5,6.7c0.2,2,1.2,3.8,2.4,5.4c0.5,0.6,1.1,1,1.8,1.5c0.8,0.5,1.5,0.7,2.3,0.8
		c1.5,0.2,2.8-0.3,4-1c1.1-0.5,2.2-1.1,2.9-2c0.9-0.9,1.9-1.9,2.8-2.8c0.1-0.1,0.1-0.3,0.2-0.5c0.6-0.6,1.2-1.3,1.8-1.9
		c0.2-0.3,0.4-0.6,0.6-0.9c0.4-0.5,0.8-0.9,1.6-0.7c2,0.5,4.1,0.8,6,1.4c1.9,0.5,3.7,1.3,5.4,2.3c1.2,0.7,2.2,1.6,2.7,2.9
		c0,0,0,0.1,0,0.1c0,0,0,0.1,0,0.1c0.2,0.6,0.4,1.1,1.1,1.3c1.4,1.2,3.7,0.3,4.1-1.3C104.9,48.2,105,48.3,105.1,48.4z M18.3,28.2
		L18.3,28.2c-0.1-0.3-0.2-0.6-0.5-0.8c-0.7-0.6-1.5-1.1-2.2-1.6c-0.8-0.4-1.6-0.4-2.4-0.3c-0.8,0.1-1.8,0.3-2.4,0.7
		c-1.2,0.9-2.1,2-2.3,3.7c-0.1,0.9-0.1,1.8,0.2,2.6c0.4,1.1,1.1,2,2.1,2.6c1.3,0.8,2.5,1.3,4,0.8c0.3-0.1,0.7-0.2,1-0.3
		c1-0.4,1.9-1.1,2.4-2c0.3-0.7,0.7-1.2,0.8-2c0.1-1.2-0.1-2.2-0.5-3.2C18.4,28.3,18.3,28.2,18.3,28.2z M53,93.8
		c0-0.1,0.1-0.1,0.1-0.2c0.8-0.8,1.5-1.6,2.2-2.4c1.3,1.2,2.5,2.4,3.7,3.5c0.8,0.7,1.7,1.4,2.5,2.1c0.8,0.6,1.7,1.3,2.6,1.8
		c1.5,0.8,3.1,1.6,4.7,2.2c1.1,0.5,2.3,0.8,3.6,0.5c1.3-0.3,2.5-0.6,2.9-2.2c0.4-1.4-0.1-2.8-1.5-3.2c-0.6-0.2-1.2-0.1-1.9-0.1
		c-0.9,0.1-1.9,0.1-2.7-0.3c-1.6-0.9-3.2-1.8-4.7-3c-1.6-1.3-2.9-2.9-4.3-4.3c-0.5-0.5-0.9-1.1-1.5-1.5c-0.4-0.4-0.5-0.7-0.3-1.2
		c0.2-0.6,0.6-1.2,0.8-1.7c0.7-1.6,1.4-3.1,1.7-4.8c0.2-1.1,0.5-2.1,0.6-3.2c0.2-1.4,0.1-2.9-0.3-4.3c-0.6-2-1.8-3.6-4-4
		c-1.1-0.2-2.3-0.2-3.5-0.2c-0.9,0-1.7,0.1-2.6,0.4c-3.7,1.2-5,4.2-4.7,7.4c0.1,2,0.8,3.9,1.7,5.6c0.9,1.7,1.8,3.3,2.7,4.9
		c0.3,0.5,0.5,1.1,0.1,1.6c-2.2,3-4.5,5.9-7.8,7.9c-1.4,0.8-2.8,1.2-4.4,0.9c-0.6-0.1-1.3-0.1-1.8,0.1c-1.5,0.6-2,2.7-1,4
		c1.2,1.6,3,1.7,4.7,1.5c2-0.2,3.9-1,5.6-2c0.9-0.5,1.7-1.3,2.6-1.9c1.2-1.2,2.4-2.3,3.6-3.5C52.9,94.1,53,93.9,53,93.8L53,93.8z
		 M46,40.3c-0.7-1.7-1.9-2.8-3.4-3.6c-1.2-0.7-2.6-1-3.9-1.3c-1-0.2-2-0.3-3.1-0.3c-0.4,0-0.7,0-1.1,0c-1.1-0.2-2.1-0.2-3.2,0
		c-0.8,0.2-1.9-0.3-2.1-1c-0.2-0.8-0.4-1.6-0.7-2.3c-0.3-0.8-0.8-1.4-1-2.2c-0.3-0.8-0.4-1.7-0.5-2.5c-0.1-0.9-0.3-1.8-0.3-2.7
		c0-0.9,0.1-1.7,0.2-2.6c0.1-0.9,0.6-1.5,1.2-2.2c1-1.2,0.8-2.7,0.1-3.8c-0.7-1-2.5-1.2-3.5-0.5c-1.2,0.8-2,1.9-2.5,3.3
		c-0.1,0.3-0.3,0.6-0.4,1c-0.2,0.7-0.4,1.5-0.4,2.2c-0.1,1.6-0.2,3.2,0,4.8c0.1,1.2,0.5,2.4,0.9,3.5c0.5,1.7,1.2,3.5,1.7,5.2
		c0.1,0.3,0.2,0.8-0.3,0.9c-1,0.3-2.1,0.3-3.1,0.8c-1.2,0.6-2.6,0.8-3.8,1.3c-1.1,0.5-2.3,0.8-3.3,1.5c-1.2,0.8-2.5,1.5-3.7,2.4
		c-2,1.4-3.2,3.2-3.2,5.8c0.1,0.9,0.6,1.4,1.4,1.8c1,1,3,0.2,3.6-0.8c0.4-0.6,0.5-1.4,1-1.9c0.9-0.9,1.9-1.7,2.9-2.6
		c0.1-0.1,0.4,0,0.6-0.1c1.1-0.4,2.1-0.9,3.2-1.3c2.2-0.8,4.5-1.4,6.9-1.7c0.5-0.1,1-0.1,1.3,0.4c0.7,1,1.4,2,2.2,2.9
		c0.9,1,1.5,2.1,2.6,3c1.2,0.9,2.3,2,3.7,2.6c1.7,0.8,3.4,1.5,5.3,0.8c1.3-0.5,2.5-1.2,3.3-2.5c0.8-1.3,1.6-2.5,1.8-4.1
		C46.4,43,46.7,41.6,46,40.3z M23.8,72.6c-0.2,0.7-0.4,1.3-0.5,2c-0.4,1.9-0.8,3.9-1.1,5.9c-0.2,1.3-0.4,2.7-0.5,4.1
		c0,1,0.1,2,0.2,3c0.3,1.9,0.9,3.7,2.1,5.3c0.8,0.9,1.8,1.3,3,1c1.7-0.4,2.7-3,1.2-4.4c-1-0.9-1.5-2.2-1.5-3.5c0-1.7,0.1-3.3,0.4-5
		c0.4-2.7,1.3-5.3,2.3-7.9c0.1-0.2,0.3-0.4,0.5-0.4c1.6-0.2,3.3-0.3,4.9-0.6c3-0.6,5.9-1.5,8.4-3.5c1.6-1.2,2.5-3.8,2.1-5.7
		c-0.3-1.4-1-2.6-1.8-3.8c-1-1.4-2.1-2.4-3.7-3c-1-0.4-2.1-0.3-3.2-0.3c-0.8,0-1.5,0.2-2.2,0.6c-0.9,0.6-1.9,1.1-2.6,1.8
		c-1.3,1.4-2.6,2.9-3.6,4.6c-0.2,0.4-0.5,0.7-0.7,1.1c-0.5,0.9-0.8,1.8-1.3,2.7c-0.1,0.2-0.4,0.4-0.6,0.4c-1.2,0-2.5-0.1-3.7-0.2
		c-1.9-0.3-3.8-0.7-5.6-1.4c-2.3-1-4.3-2.3-5-4.9c-0.1-0.6-0.5-1-1.1-1.1c-0.7-0.1-1.5-0.2-2.3-0.1c-0.3,0-0.7,0.2-1,0.4
		c-0.8,0.8-1,1.8-0.7,2.9c0.5,1.8,1.5,3.3,2.9,4.6c2.4,2.2,5.4,3.4,8.5,4.2C19.7,71.9,21.7,72.2,23.8,72.6z M54.9,41.9
		c0.7-0.1,1.7-0.2,2.6-0.5c1.8-0.6,3.2-1.7,3.8-3.6c0.6-1.7,0.6-3.4,0.4-5.1c-0.3-2-0.8-3.9-1.5-5.7c-0.5-1.2-1-2.4-1.5-3.6
		c-0.2-0.5-0.1-0.8,0.2-1.2c1.9-2.1,3.8-4.2,6-5.9c1.4-1.2,3-2.2,4.6-2.9c0.7-0.3,1.4-0.3,2.2-0.2c1,0.2,2,0.1,2.8-0.6
		c0.8-0.7,1.2-1.5,1-2.5C75.2,9,74.7,8.2,73.8,8c-1.2-0.3-2.4-0.3-3.6-0.1c-2.1,0.3-3.9,1.2-5.6,2.3c-1.6,1-3.1,2.2-4.6,3.3
		c-0.8,0.6-1.6,1.3-2.3,2c-0.6,0.6-1.2,1.2-1.8,1.8c-0.3,0.3-0.6,0.3-0.9,0c-0.2-0.3-0.5-0.7-0.7-1c-1.3-1.4-2.6-2.8-3.9-4.2
		c-0.7-0.7-1.6-1.5-2.4-2.1c-0.7-0.5-1.6-0.7-2.3-1.2c-1.5-0.9-3.1-1.5-4.9-1.4c-0.7,0-1.4,0-2.1,0c-0.8,0.1-1.6,0.3-2.2,1
		c-0.6,0.7-0.4,1.6-0.6,2.3c0,0.1,0.1,0.3,0.1,0.4c0.2,0.3,0.4,0.5,0.5,0.8c0.4,0.9,1.2,1,2.1,0.9c1-0.1,2-0.2,3,0
		c1.9,0.4,3.4,1.7,4.8,3c0.8,0.7,1.6,1.5,2.4,2.3c0.1,0.1,0.1,0.2,0.2,0.3c0.3,0.3,0.5,0.7,0.8,1c0.1,0.1,0.2,0.2,0.3,0.3
		c0.2,0.3,0.3,0.6,0.4,0.9c0.4,0.6,1.1,1,0.9,1.8c-0.1,0.7-0.4,1.4-0.9,1.9c-0.1,0.1-0.2,0.3-0.3,0.4c-0.1,0.2-0.2,0.5-0.3,0.7
		c-0.4,0.7-1.1,1.3-1.3,2.1c0,0.1,0,0.3-0.1,0.5c-0.3,0.7-0.7,1.5-1,2.2c-0.6,1.6-0.8,3.3-0.7,5.1c0.1,1,0.4,1.9,0.9,2.8
		C49.3,40.7,51.7,41.7,54.9,41.9z M55.2,46.2c-0.5,0.1-1.4,0.1-2.3,0.4c-2.1,0.6-3.7,1.9-4.9,3.8c-0.2,0.3-0.6,0.6-0.6,0.9
		c-0.1,0.8-0.6,1.5-0.6,2.4c0,0.9-0.1,1.7,0,2.6c0.4,2.2,1.3,4.2,3.2,5.7c1.4,1.1,3,1.7,4.8,1.9c1.7,0.2,3.3-0.3,4.9-1
		c2.4-1.2,4.6-4,4.4-6.4c0.5-0.5,0.2-1.2,0.2-1.8c0.1-1.3-0.2-2.6-0.8-3.7C61.9,47.8,59.2,46.3,55.2,46.2z M97.8,25.5
		c-3.4-0.2-5.5,2.4-5.5,5.1c0,2.9,2.2,5.5,5.5,5.5c2.8,0,5.2-2.3,5.3-5.3C103.1,27.9,100.4,25.2,97.8,25.5z M60.9,102.5
		c-0.2-1.1-0.7-2-1.5-2.8c-1.2-1.4-2.9-1.7-4.5-1.5c-1.1,0.1-2.3,0.6-3.2,1.6c-0.8,0.9-1.4,1.9-1.5,3.2c-0.2,3.6,2.5,6,5.3,6
		c1.5,0,2.8-0.6,3.8-1.7C60.7,106,61.3,104.4,60.9,102.5z M8.4,79.2c-0.1,2.8,2.3,5.3,5.1,5.4c2.8,0.1,5.6-2.3,5.5-5.5
		c-0.1-3.2-2.3-5.1-5.5-5.1C10.2,74,8.3,76.8,8.4,79.2z M96.3,73.9c-0.1,0.1-0.3,0.2-0.5,0.3c-1,0.4-1.9,0.8-2.5,1.8
		c0,0.1-0.1,0.1-0.2,0.2c-0.3,0.5-0.7,0.9-0.8,1.4c-0.1,0.9,0,1.8,0,2.7c0,0.1,0,0.3,0.1,0.4c0.7,1,1.1,2.1,2.2,2.8
		c1.2,0.8,2.4,1.2,3.8,1c2.3-0.4,4.7-2.4,4.5-5.6c-0.1-1.8-0.9-3.1-2.3-4.1c-0.9-0.7-1.9-0.8-3-0.7C97.2,74.1,96.8,74,96.3,73.9z"/>
	<path class="st1" d="M105.1,62.6c-0.2,0.3-0.3,0.6-0.5,1c-0.9,2.3-2.5,3.9-4.6,5.1c-2.9,1.7-6,2.7-9.2,3.3
		c-0.8,0.2-1.6,0.3-2.4,0.4c-0.6,0.1-0.8,0.6-0.7,1.5c0.6,2.5,1.1,5.1,1.6,7.6c0.2,1.3,0.3,2.6,0.2,3.9c0,1.7-0.4,3.4-0.9,5
		c-0.3,0.9-0.5,1.7-1.2,2.4c-1.3,1.4-3.3,1.5-4.5,0c-0.7-0.8-0.8-2.1-0.1-3c0.3-0.4,0.6-0.7,0.8-1.1c0.6-0.8,0.8-1.7,0.8-2.6
		c0-2.9-0.2-5.7-1.1-8.5c-0.4-1.3-0.9-2.6-1.2-3.9c-0.2-0.8-0.8-1.1-1.5-1.2c-1-0.1-2-0.1-3-0.3c-0.6-0.1-1.2-0.4-1.8-0.6
		c-0.1,0-0.1-0.1-0.2-0.1c-1,0.2-1.9-0.2-2.8-0.6c-1-0.4-2-0.8-2.9-1.3c-1.5-0.8-2.6-1.9-3.4-3.4c-0.4-0.7-0.4-1.4-0.4-2.1
		c0-0.8,0-1.6,0.1-2.3c0-0.1,0.1-0.2,0.1-0.2c0.1-0.1,0.3-0.3,0.3-0.4c0.5-1.3,1.4-2.4,2.3-3.4c1.2-1.4,2.8-2,4.6-2
		c0.9,0,1.8,0,2.7,0.3c0.9,0.3,1.7,0.9,2.4,1.4c2.1,1.5,3.5,3.6,4.7,5.8c0.7,1.2,1.4,2.3,2,3.5c0.2,0.3,0.3,0.4,0.7,0.4
		c1.4-0.2,2.8-0.3,4.1-0.5c0.8-0.1,1.7-0.3,2.5-0.5c0.4-0.1,0.8-0.4,1.3-0.6c0.5-0.2,1-0.3,1.4-0.5c1.4-0.6,2.8-1.4,3.8-2.6
		c0.4-0.5,0.7-1.2,1-1.9c0.5-1.2,1.9-1.7,3-1.6c1,0.1,1.6,0.6,1.9,1.5c0,0.1,0.2,0.2,0.2,0.2C105.1,61.4,105.1,62,105.1,62.6z
		 M78.9,67c-0.1-0.3-0.1-0.5-0.2-0.7c-0.2-0.3-0.4-0.6-0.6-1c-0.9-1.5-2.1-2.7-3.5-3.8c-0.6-0.5-1-0.4-1.6,0.1c-0.3,0.3-0.7,0.6-1,1
		c-0.9,1.2-0.9,1.4,0.3,2.3c0.1,0.1,0.2,0.2,0.3,0.2C74.6,66.3,76.7,66.5,78.9,67z"/>
	<path class="st1" d="M57.6,1.6c1.2,0.4,2.1,1.2,2.7,2.4c0.7,1.3,0.8,2.7,0.4,4.1c-0.2,0.7-0.7,1.5-1.2,2.1c-0.6,0.6-1.3,1.1-2,1.4
		c-0.5,0.2-1.1,0.3-1.7,0.3c-1.8,0.1-3.2-0.8-4.3-2.1c-0.2-0.2-0.4-0.3-0.5-0.5c-0.1-0.1-0.1-0.1-0.1-0.2c-0.1-0.9-0.4-1.8-0.4-2.7
		c0-2,1.3-4.3,3.5-4.9c0.2-0.1,0.4-0.2,0.7-0.3c0,0,0-0.1,0-0.1c0,0,0.1,0,0.1,0c0.1,0,0.2,0.1,0.3,0.1c0.2,0.1,0.3,0.2,0.5,0.2
		C56.2,1.5,56.9,1.5,57.6,1.6z"/>
	<path class="st2" d="M57.6,1.6c-0.7,0-1.4-0.1-2.2-0.1c-0.2,0-0.3-0.2-0.5-0.2c0.3,0,0.6-0.1,0.8-0.1c0.5,0,1,0,1.6,0
		C57.4,1.2,57.5,1.4,57.6,1.6z"/>
	<path class="st3" d="M105.1,48.4c-0.1-0.1-0.2-0.2-0.3-0.3c0-0.6,0-1.1,0-1.7c0.1-0.2,0.2-0.3,0.3-0.5
		C105.1,46.8,105.1,47.6,105.1,48.4z"/>
	<path class="st4" d="M55.8,1.1c-0.3,0-0.6,0.1-0.8,0.1c-0.1,0-0.2-0.1-0.3-0.1C55,1.1,55.4,1.1,55.8,1.1z"/>
	<path class="st4" d="M54.5,1.1c0,0,0,0.1,0,0.1c0,0-0.1-0.1-0.1-0.1C54.4,1.1,54.4,1.1,54.5,1.1z"/>
	<path class="st2" d="M6.4,47.8c0-2.5,1.3-4.4,3.2-5.8c1.2-0.8,2.5-1.6,3.7-2.4c1-0.7,2.2-1,3.3-1.5c1.2-0.5,2.6-0.7,3.8-1.3
		c1-0.5,2.1-0.5,3.1-0.8c0.5-0.2,0.4-0.6,0.3-0.9c-0.6-1.7-1.2-3.4-1.7-5.2c-0.4-1.2-0.8-2.3-0.9-3.5c-0.1-1.6,0-3.2,0-4.8
		c0-0.8,0.2-1.5,0.4-2.2c0.1-0.3,0.3-0.6,0.4-1c0.5-1.4,1.3-2.5,2.5-3.3c1-0.7,2.8-0.5,3.5,0.5c0.7,1,0.9,2.6-0.1,3.8
		c-0.6,0.6-1.1,1.3-1.2,2.2c-0.1,0.9-0.2,1.7-0.2,2.6c0,0.9,0.2,1.8,0.3,2.7c0.1,0.8,0.3,1.7,0.5,2.5c0.3,0.8,0.7,1.4,1,2.2
		c0.3,0.7,0.5,1.5,0.7,2.3c0.2,0.7,1.2,1.2,2.1,1c1.1-0.2,2.1-0.2,3.2,0c0.3,0.1,0.7,0,1.1,0c1,0,2,0.1,3.1,0.3
		c1.4,0.3,2.7,0.7,3.9,1.3c0.1,0.2,0.2,0.5,0.4,0.6c0.9,0.8,1.9,1.5,2.5,2.7c0.1,0.2,0.4,0.2,0.6,0.3c0.7,1.3,0.4,2.7,0.2,4.1
		c-0.2,1.5-0.9,2.8-1.8,4.1c-0.8,1.2-2,1.9-3.3,2.5c-1.9,0.8-3.6,0-5.3-0.8c-1.4-0.6-2.5-1.7-3.7-2.6c-1.1-0.8-1.8-2-2.6-3
		c-0.8-0.9-1.5-1.9-2.2-2.9c-0.4-0.5-0.9-0.5-1.3-0.4c-2.3,0.3-4.6,0.9-6.9,1.7c-1.1,0.4-2.1,0.9-3.2,1.3c-0.2,0.1-0.5,0-0.6,0.1
		c-1,0.8-2,1.6-2.9,2.6c-0.5,0.5-0.6,1.3-1,1.9c-0.6,1-2.6,1.8-3.6,0.8C7.9,48.8,7.2,48.2,6.4,47.8z M33.6,40.4c0,0.1,0,0.1,0,0.2
		c0.5,0.5,0.9,1.1,1.4,1.6c1.2,1.3,2.5,2.5,4.2,3.2c0.4,0.2,0.7,0.1,0.9-0.3c0.3-0.6,0.6-1.2,0.8-1.8c0.3-0.7,0.1-1.1-0.5-1.4
		c-0.7-0.3-1.5-0.6-2.3-0.8C36.5,40.8,35,40.6,33.6,40.4z"/>
	<path class="st2" d="M49.2,97.7c-0.8,0.6-1.6,1.4-2.6,1.9c-1.7,1-3.6,1.8-5.6,2c-1.7,0.2-3.5,0-4.7-1.5c-1-1.3-0.5-3.4,1-4
		c0.5-0.2,1.2-0.2,1.8-0.1c1.6,0.3,3-0.1,4.4-0.9c3.3-1.9,5.6-4.9,7.8-7.9c0.4-0.5,0.2-1.1-0.1-1.6c-0.9-1.6-1.9-3.2-2.7-4.9
		c-0.9-1.8-1.6-3.7-1.7-5.6c-0.2-3.2,1-6.2,4.7-7.4c0.8-0.3,1.7-0.3,2.6-0.4c1.2,0,2.4-0.1,3.5,0.2c2.1,0.5,3.4,2,4,4
		c0.4,1.4,0.6,2.8,0.3,4.3c-0.2,1.1-0.4,2.1-0.6,3.2c-0.3,1.7-1.1,3.2-1.7,4.8c-0.3,0.6-0.6,1.2-0.8,1.7c-0.2,0.5-0.1,0.8,0.3,1.2
		c0.5,0.5,1,1,1.5,1.5c1.4,1.5,2.8,3,4.3,4.3c1.4,1.2,3,2.1,4.7,3c0.8,0.4,1.7,0.4,2.7,0.3c0.6-0.1,1.3-0.1,1.9,0.1
		c1.4,0.4,1.8,1.8,1.5,3.2c-0.4,1.6-1.6,1.9-2.9,2.2c-1.3,0.3-2.4-0.1-3.6-0.5c-1.6-0.6-3.1-1.4-4.7-2.2c-0.9-0.5-1.8-1.1-2.6-1.8
		c-0.9-0.7-1.7-1.4-2.5-2.1c-1.2-1.1-2.4-2.3-3.7-3.5c-0.7,0.8-1.5,1.6-2.2,2.4c0,0.1-0.1,0.1-0.1,0.2c0,0,0,0,0,0
		c-0.1,0.1-0.3,0.1-0.4,0.2c-1.1,0.7-2,1.5-2.7,2.6C49.7,96.9,49.5,97.3,49.2,97.7z M55.9,72.8c-0.8,0-1.3,0-1.9,0
		c-1.5,0-1.9,1-1.7,2.1c0.4,2,1.1,3.9,2.2,5.8c0.2-0.2,0.4-0.4,0.4-0.5c0.8-2,1.4-4,1.1-6.2C56.1,73.5,56,73.1,55.9,72.8z"/>
	<path class="st2" d="M104.8,46.5c0,0.6,0,1.1,0,1.7c-0.3,1.6-2.7,2.6-4.1,1.3c0.1-0.4-0.7-1.5-1.2-1.6c-0.6-1.3-1.6-2.1-2.7-2.9
		c-1.7-1.1-3.5-1.8-5.4-2.3c-2-0.6-4-0.9-6-1.4c-0.8-0.2-1.2,0.1-1.6,0.7c-0.2,0.3-0.4,0.6-0.6,0.9c-0.6,0.7-1.2,1.3-1.8,1.9
		c-0.6,0.5-1.2,0.9-1.7,1.5c-0.5,0.5-1.3,0.9-1.2,1.8c-0.8,1-1.9,1.5-2.9,2c-1.3,0.6-2.6,1.1-4,1c-0.8-0.1-1.6-0.3-2.3-0.8
		c-0.7-0.4-1.3-0.8-1.8-1.5c-1.2-1.6-2.2-3.3-2.4-5.4c-0.3-3,1-5.2,3.5-6.7c1.6-0.9,3.3-1.5,5.1-1.6c1.6-0.1,3.2-0.2,4.8-0.2
		c0.9,0,1.9,0,2.8-0.1c0.3,0,0.6-0.3,0.7-0.6c0.5-1,1-2.1,1.4-3.2c0.6-1.7,1.2-3.5,1.5-5.2c0.4-2.3,0.3-4.7-1.4-6.7
		c-0.1-0.2-0.2-0.4-0.3-0.6c-0.6-0.9-0.6-1.7,0-2.6c0.6-0.8,1.3-1.3,2.3-1.3c1,0,1.7,0.4,2.3,1.1c1.3,1.5,2.2,3.2,2.3,5.2
		c0.1,1.7,0.2,3.4,0.1,5.1c-0.1,2.2-0.7,4.4-1.6,6.5c-0.3,0.7-0.5,1.4-0.8,2.1c-0.1,0.3-0.3,0.6-0.6,1c1,0.3,2,0.7,3,1
		c2.8,0.8,5.7,1.5,8.3,3c1.9,1.2,4,2.2,5.3,4.2c0.4,0.6,0.7,1.3,1.1,2c0,0.1,0,0.2,0.1,0.2C104.8,46.3,104.8,46.4,104.8,46.5
		c-0.1-0.1-0.1,0-0.1,0C104.7,46.4,104.8,46.4,104.8,46.5L104.8,46.5z M77.7,40.5c-0.3,0-0.5,0-0.6,0c-1,0.1-2,0.1-3.1,0.3
		c-0.8,0.1-1.6,0.4-2.4,0.7c-0.8,0.3-1.3,1.3-1.1,1.9c0.3,0.6,0.6,1.2,0.9,1.8c0.2,0.4,0.6,0.5,1,0.3c0.6-0.3,1.4-0.6,1.9-1.1
		c1.1-1.1,2.2-2.3,3.2-3.4C77.6,40.9,77.6,40.7,77.7,40.5z"/>
	<path class="st1" d="M23.8,72.6c-2-0.4-4.1-0.8-6.1-1.3c-3.1-0.8-6.1-2.1-8.5-4.2c-1.4-1.2-2.4-2.8-2.9-4.6c-0.3-1-0.1-2.1,0.7-2.9
		c0.2-0.2,0.6-0.4,1-0.4c0.8,0,1.5,0,2.3,0.1c0.6,0.1,0.9,0.6,1.1,1.1c0.7,2.6,2.7,3.9,5,4.9c1.8,0.8,3.7,1.2,5.6,1.4
		c1.2,0.2,2.5,0.2,3.7,0.2c0.2,0,0.5-0.2,0.6-0.4c0.5-0.9,0.9-1.8,1.3-2.7c0.2-0.4,0.5-0.7,0.7-1.1c1-1.7,2.3-3.2,3.6-4.6
		c0.7-0.8,1.7-1.3,2.6-1.8c0.6-0.4,1.4-0.6,2.2-0.6c1.1,0,2.1-0.1,3.2,0.3c1.6,0.5,2.8,1.6,3.7,3c0.8,1.2,1.5,2.4,1.8,3.8
		c0.4,2-0.5,4.5-2.1,5.7c-2.5,1.9-5.3,2.9-8.4,3.5c-1.6,0.3-3.3,0.4-4.9,0.6c-0.2,0-0.5,0.2-0.5,0.4c-0.9,2.6-1.9,5.1-2.3,7.9
		c-0.2,1.6-0.3,3.3-0.4,5c0,1.3,0.5,2.6,1.5,3.5c1.5,1.4,0.5,3.9-1.2,4.4c-1.2,0.3-2.3,0-3-1c-1.3-1.5-1.8-3.4-2.1-5.3
		c-0.2-1-0.3-2-0.2-3c0.1-1.4,0.2-2.7,0.5-4.1c0.3-2,0.7-3.9,1.1-5.9C23.3,73.9,23.6,73.3,23.8,72.6z M32.3,66.6
		c0,0.1,0.1,0.1,0.1,0.2c0.4-0.1,0.8-0.1,1.2-0.2c2.2-0.3,4.2-0.9,5.9-2.5c0.3-0.2,0.4-0.5,0.2-0.8c-0.4-0.6-0.7-1.2-1.2-1.7
		c-0.5-0.6-1.2-0.6-1.8-0.1c-0.7,0.6-1.4,1.2-2,1.9C33.9,64.5,33.1,65.6,32.3,66.6z"/>
	<path class="st1" d="M54.9,41.9c-3.1-0.2-5.6-1.2-7.1-3.7c-0.5-0.8-0.9-1.8-0.9-2.8c-0.1-1.7,0.1-3.4,0.7-5.1
		c0.3-0.8,0.7-1.5,1-2.2c0.1-0.1,0-0.3,0.1-0.5c0.3-0.8,0.9-1.4,1.3-2.1c0.1-0.2,0.2-0.5,0.3-0.7c0.1-0.1,0.1-0.3,0.3-0.4
		c0.6-0.5,0.8-1.2,0.9-1.9c0.2-0.8-0.6-1.2-0.9-1.8c-0.2-0.3-0.3-0.6-0.4-0.9c-0.1-0.1-0.2-0.2-0.3-0.3c-0.3-0.3-0.6-0.6-0.8-1
		c-0.1-0.1-0.1-0.2-0.2-0.3c-0.8-0.8-1.6-1.5-2.4-2.3c-1.4-1.3-2.9-2.5-4.8-3c-1-0.2-2-0.1-3,0c-0.9,0.1-1.6,0-2.1-0.9
		c-0.1-0.3-0.3-0.5-0.5-0.8c-0.1-0.1-0.2-0.3-0.1-0.4c0.2-0.8,0-1.7,0.6-2.3c0.6-0.7,1.4-0.9,2.2-1c0.7,0,1.4,0,2.1,0
		c1.8-0.1,3.4,0.5,4.9,1.4c0.7,0.4,1.6,0.7,2.3,1.2c0.9,0.6,1.7,1.3,2.4,2.1c1.3,1.4,2.6,2.8,3.9,4.2c0.3,0.3,0.5,0.6,0.7,1
		c0.3,0.4,0.5,0.4,0.9,0c0.6-0.6,1.1-1.3,1.8-1.8c0.8-0.7,1.5-1.4,2.3-2c1.5-1.1,3-2.3,4.6-3.3c1.7-1.1,3.6-2,5.6-2.3
		c1.2-0.2,2.4-0.2,3.6,0.1c0.9,0.2,1.4,1,1.6,2.1c0.2,1.1-0.2,1.9-1,2.5c-0.8,0.7-1.8,0.7-2.8,0.6c-0.7-0.1-1.4-0.1-2.2,0.2
		c-1.7,0.8-3.2,1.8-4.6,2.9c-2.2,1.8-4.1,3.9-6,5.9c-0.3,0.4-0.4,0.7-0.2,1.2c0.5,1.2,1,2.4,1.5,3.6c0.8,1.8,1.3,3.8,1.5,5.7
		c0.2,1.7,0.2,3.4-0.4,5.1c-0.6,1.9-2,3-3.8,3.6C56.6,41.7,55.6,41.8,54.9,41.9z M54.7,28.1c-1.1,1.6-1.8,3.3-2.3,5.1
		c-0.2,0.8-0.5,1.6,0.2,2.3c0.5,0.5,1.1,0.8,1.8,0.8c0.8,0,1.5-0.2,1.7-0.9c0.2-1.2,0.2-2.3-0.1-3.5C55.8,30.6,55.4,29.3,54.7,28.1z
		"/>
	<path class="st1" d="M55.2,46.2c4,0.1,6.7,1.6,8.4,4.8c0.6,1.1,0.9,2.4,0.8,3.7c0,0.6,0.3,1.2-0.2,1.8c0.2,2.4-2,5.2-4.4,6.4
		c-1.6,0.8-3.2,1.3-4.9,1c-1.8-0.2-3.4-0.8-4.8-1.9c-1.9-1.5-2.8-3.5-3.2-5.7c-0.2-0.8,0-1.7,0-2.6c0-0.9,0.5-1.6,0.6-2.4
		c0-0.3,0.4-0.6,0.6-0.9c1.2-1.9,2.7-3.2,4.9-3.8C53.8,46.3,54.7,46.3,55.2,46.2z"/>
	<path class="st2" d="M97.8,25.5c2.7-0.3,5.3,2.5,5.2,5.3c-0.1,3.1-2.5,5.3-5.3,5.3c-3.3,0-5.5-2.6-5.5-5.5
		C92.3,27.9,94.4,25.3,97.8,25.5z"/>
	<path class="st2" d="M60.9,102.5c0.3,1.8-0.2,3.4-1.5,4.7c-1,1.1-2.4,1.7-3.8,1.7c-2.8-0.1-5.6-2.4-5.3-6c0.1-1.2,0.6-2.2,1.5-3.2
		c0.9-1,2-1.5,3.2-1.6c1.6-0.1,3.3,0.2,4.5,1.5C60.2,100.5,60.7,101.5,60.9,102.5z"/>
	<path class="st1" d="M8.4,79.2c-0.1-2.4,1.8-5.2,5.1-5.2c3.2,0,5.4,1.9,5.5,5.1c0.1,3.3-2.7,5.7-5.5,5.5
		C10.7,84.5,8.3,82.1,8.4,79.2z"/>
	<path class="st1" d="M96.3,73.9c0.5,0.1,0.9,0.1,1.2,0.1c1.1,0,2.1,0.1,3,0.7c1.4,1,2.2,2.3,2.3,4.1c0.1,3.3-2.2,5.2-4.5,5.6
		c-1.4,0.3-2.6-0.2-3.8-1c-1.1-0.7-1.5-1.9-2.2-2.8c-0.1-0.1-0.1-0.3-0.1-0.4c0-0.9-0.1-1.8,0-2.7c0.1-0.5,0.5-0.9,0.8-1.4
		c0-0.1,0.1-0.1,0.2-0.2c0.6-1,1.5-1.4,2.5-1.8C96,74.2,96.2,74,96.3,73.9z"/>
	<path class="st2" d="M18.4,28.3c0.5,1,0.7,2.1,0.5,3.2c-0.1,0.8-0.4,1.4-0.8,2c-0.2,0.1-0.5,0.1-0.7,0.3c-0.7,0.8-1.6,1.1-2.5,1.5
		c-0.2,0.1-0.2,0.4-0.3,0.6c-1.5,0.5-2.7,0-4-0.8c-1.1-0.7-1.8-1.5-2.1-2.6c-0.3-0.8-0.3-1.7-0.2-2.6c0.2-1.7,1.1-2.8,2.3-3.7
		c0.7-0.5,1.6-0.6,2.4-0.7c0.8-0.1,1.7-0.1,2.4,0.3c0,0.1,0,0.2,0,0.3c0.3,0.4,0.6,0.7,0.9,1c0.5,0.5,1,0.9,1.8,1.1c0,0,0,0,0,0
		C18.3,28.2,18.4,28.3,18.4,28.3z"/>
	<path class="st1" d="M49.2,97.7c0.2-0.4,0.4-0.8,0.7-1.2c0.7-1.1,1.6-1.9,2.7-2.6c0.1-0.1,0.3-0.1,0.4-0.2
		c-0.1,0.1-0.1,0.3-0.2,0.4C51.6,95.4,50.4,96.6,49.2,97.7z"/>
	<path class="st1" d="M46,40.3c-0.2-0.1-0.5-0.2-0.6-0.3c-0.6-1.1-1.6-1.9-2.5-2.7c-0.2-0.2-0.3-0.4-0.4-0.6
		C44.1,37.5,45.3,38.6,46,40.3z"/>
	<path class="st1" d="M18.3,28.2c-0.7-0.2-1.3-0.6-1.8-1.1c-0.3-0.3-0.6-0.7-0.9-1c-0.1-0.1,0-0.2,0-0.3c0.7,0.5,1.5,1,2.2,1.6
		C18.1,27.6,18.2,27.9,18.3,28.2z"/>
	<path class="st1" d="M14.7,36c0.1-0.2,0.1-0.5,0.3-0.6c0.9-0.4,1.8-0.7,2.5-1.5c0.1-0.2,0.4-0.2,0.7-0.3c-0.6,1-1.4,1.6-2.4,2
		C15.4,35.7,15.1,35.8,14.7,36z"/>
	<path class="st1" d="M78.4,48.2c-0.1-0.9,0.7-1.3,1.2-1.8c0.5-0.5,1.1-1,1.7-1.5c-0.1,0.2-0.1,0.4-0.2,0.5
		C80.2,46.3,79.3,47.2,78.4,48.2z"/>
	<path class="st1" d="M6.4,47.8c0.8,0.3,1.5,1,1.4,1.8C7,49.3,6.5,48.7,6.4,47.8z"/>
	<path class="st1" d="M99.6,47.9c0.5,0.1,1.3,1.1,1.2,1.6c-0.7-0.2-0.9-0.7-1.1-1.3c0,0,0,0,0,0c0,0,0-0.1-0.1-0.1
		C99.6,48,99.6,48,99.6,47.9z"/>
	<path class="st1" d="M53,93.8c0-0.1,0.1-0.1,0.1-0.2C53.1,93.6,53.1,93.7,53,93.8z"/>
	<path class="st3" d="M104.8,46.3c0-0.1,0-0.2-0.1-0.2C104.8,46.1,104.8,46.2,104.8,46.3z"/>
	<path class="st2" d="M99.6,48C99.7,48.1,99.7,48.1,99.6,48c0.1,0.1,0.1,0.1,0,0.1C99.7,48.1,99.7,48.1,99.6,48z"/>
	<path class="st3" d="M104.8,46.4C104.8,46.4,104.7,46.4,104.8,46.4C104.7,46.4,104.8,46.4,104.8,46.4
		C104.8,46.4,104.8,46.4,104.8,46.4z"/>
	<path class="st1" d="M18.4,28.3c0,0-0.1-0.1-0.1-0.1C18.3,28.2,18.4,28.3,18.4,28.3z"/>
</g>
</svg>
