<?xml version="1.0" encoding="UTF-8"?>
<svg id="Layer_1" data-name="Layer 1" xmlns="http://www.w3.org/2000/svg" viewBox="0 0 350 350">
  <path d="m287.86,151.55c-.78.04-1.56.12-2.34.12-10.25.03-20.5.03-30.75.07-1.67,0-3.47-.07-3.79,2.27-.17,1.26.12,2.16,1.61,2.2.92.03,1.83.07,2.75.07,14,.07,28,.07,41.99.23,5.13.06,10.25.5,15.43,1.17-1.74.23-3.48.63-5.23.67-19.56.5-39.13.94-58.69,1.4-.83.02-1.89-.13-2.42.3-.78.65-1.42,1.71-1.63,2.7-.07.35,1.28,1.42,2.01,1.45,4.66.2,9.33.16,13.99.3,1.9.06,3.82.25,5.7.56,2.97.5,4.61,2.58,4.42,5.38-.17,2.5-1.96,3.93-5.06,3.99-2.42.05-4.84-.07-7.24.15-.71.07-1.76.96-1.9,1.63-.2,1.04-.66,2.54,1.32,2.89,2.14.38,3.77,1.55,3.71,3.97-.06,2.02-2.32,3.59-4.92,3.65-.83.02-1.68-.08-2.5.04-3.34.5-5.9-.78-7.7-3.5-2.29-3.46-5.47-4.56-9.45-4.16-2.48.25-5.01.12-7.48.42-.68.08-1.24,1.12-1.85,1.72.62.59,1.19,1.6,1.87,1.68,2.06.24,4.16.24,6.24.11,2.56-.16,4.48.8,6.13,2.69,1.58,1.82,3.32,3.51,4.98,5.27,2.55,2.69,2.76,5.99.54,8.2-2.92,2.9-6.42,3.12-9.28.74-.56-.47-2.06-.79-2.26-.52-.51.67-.74,1.74-.65,2.59.07.63.78,1.24,1.31,1.75,1.44,1.38,1.28,2.71.1,4.17-2.11,2.59-3.27,2.46-5.49-.11-3.48-4.02-7.14-7.9-10.85-11.72-.52-.54-2.25-.83-2.53-.5-.56.68-.8,1.91-.64,2.82.14.8.95,1.53,1.57,2.18,2.52,2.66,5.13,5.24,7.62,7.93,1.71,1.85,2.13,6.36.77,8.44-1.15,1.75-2.47,2.92-4.98,1.97-3.1-1.18-3.92-.34-3.6,2.94.08.89.29,2.07-.17,2.64-.86,1.07-2.91,2.71-3.14,2.51-1.45-1.19-2.83-2.69-3.63-4.38-.55-1.16.08-2.83-.23-4.18-.18-.8-1.18-1.4-1.81-2.1-.6.7-1.69,1.37-1.73,2.1-.2,3.41-.09,6.83-.13,10.24-.03,2.3-1.31,4.17-2.88,3.97-2.29-.29-2.83-1.96-2.78-4.01.06-2-.17-4.02.04-5.99.31-2.95-.85-5.28-2.98-7-4.39-3.55-8.89-6.96-13.45-10.29-4.77-3.47-9.7-6.72-14.48-10.18-2.8-2.03-4.03-2.2-6.56.13-3.18,2.93-6.41,5.85-9.25,9.1-3.34,3.82-8.11,5.07-12.19,7.54-3.62,2.18-7.33,4.23-10.87,6.53-1.92,1.25-2.69,3.22-2.56,5.62.15,2.82.3,5.7-.08,8.48-.24,1.74-1.08,3.72-2.3,4.92-1.87,1.84-4.39,2.98-6.47,4.63-2.77,2.19-5.65,4.33-7.99,6.94-3.2,3.57-4.99,3.42-7.41-.76-1.25-2.17-3.18-3.98-4.98-5.79-2.62-2.63-2.74-3.68-.4-6.57,1.35-1.67,2.83-3.3,3.86-5.16.43-.78-.12-2.11-.23-3.18-.98.37-2.16.52-2.89,1.17-1.55,1.38-2.87,3.01-4.26,4.56-1.52,1.7-3.1,1.6-4.37-.11-1.78-2.39-3.43-4.9-4.92-7.48-.33-.57.09-1.74.46-2.49.43-.88,1.41-1.52,1.72-2.42.28-.82.27-2.03-.17-2.7-.28-.43-1.67-.49-2.39-.24-3.09,1.07-6.42-.89-6.84-4.17-.06-.49-.08-1-.03-1.5.41-3.82-.17-7.14-3.5-9.77-1.2-.95-1.57-3.01-2.21-4.62-.57-1.44-.89-3-1.51-4.42-.86-1.99-.3-3.93,1.81-4.3,4.21-.74,7.25-3.18,10.02-6.13,1.95-2.08,4.23-3,7.12-2.86,3.32.16,6.66.03,10-.02,1.29-.02,2.53-.11,2.5-1.97-.03-1.87-1.32-1.93-2.58-1.92-4.75.05-9.5.04-14.24.33-1.37.09-2.84.9-3.97,1.77-1.91,1.47-3.62,3.19-5.33,4.9-1.94,1.94-4.07,1.47-6.26.71-1.88-.65-2.58-2.04-2.86-3.97-.19-1.34-.88-2.67-1.58-3.87-2.56-4.4-1.84-7.77,2.26-10.79.76-.56,1.18-1.59,1.76-2.4-.96-.45-1.9-.95-2.88-1.34-.9-.36-2.21-.32-2.72-.95-1.47-1.85-3.38-1.88-5.4-1.91-8.58-.13-17.16-.25-25.74-.43-1.46-.03-2.92-.34-4.38-.95.71-.09,1.41-.24,2.12-.26,13.98-.39,27.95-.8,41.93-1.11,1.97-.04,3.18-.51,2.68-2.63-.17-.71-1.03-1.46-1.76-1.78-.7-.31-1.64-.09-2.47-.1-2.48-.05-4.62-.82-5.83-3.14-1.33-2.55-1.56-5.35.39-7.51,2.7-2.97,4.09-5.77,2.83-9.99-.83-2.78-.29-5.97,1.56-8.61,1.22-1.74,2.87-2.56,4.68-1.3,3.26,2.27,6.86,2.23,10.54,2.18,3.25-.05,6.51-.22,9.74.02,1.45.11,3.21.72,4.17,1.73,2.91,3.06,5.73,6.27,8.16,9.72,2.3,3.29,4.92,5.17,9.1,4.9,3.65-.24,7.33,0,11-.04,1.43-.01,3.34.41,3.38-1.86.04-2.2-1.76-2.04-3.27-2.04-3.58,0-7.17-.02-10.75.01-1.88.02-3.24-.64-4.47-2.17-3.24-4.01-6.7-7.84-10.04-11.77-1.67-1.97-3.64-2.94-6.32-2.85-4.74.16-9.5.08-14.25.07-2.73,0-7.59-3.92-7.99-6.59-.15-.98.14-2.15.58-3.07,1.17-2.45,2.62-4.77,3.77-7.22,1.24-2.64,2.4-3.2,5.09-2.06,1.15.48,2.25,1.11,3.44,1.43.51.14,1.35-.15,1.73-.54.25-.25.12-1.18-.16-1.58-.71-1.01-1.57-1.92-2.42-2.83-1.96-2.11-2.14-3.47-.24-5.66,1.63-1.88,3.47-3.59,5.3-5.28,1.23-1.14,2.28-.36,3.23.59,3.07,3.06,6.38,5.91,9.16,9.21,3.67,4.37,8.04,6.94,13.75,7.62,1.79.21,3.82,1.39,5.04,2.75,4.29,4.75,8.28,9.77,12.36,14.7,1.74,2.11,3.76,3.52,6.56,4.16,6.24,1.43,9.53,6.64,13.33,11.13,1.67,1.97,3.11,4.18,5.02,5.86,1.11.97,2.96,1.5,4.49,1.52,14.16.18,28.33.2,42.49.3,1.11,0,2.21.23,3.32.36.14.24.29.48.43.72-1.94,2.3-3.51,5.18-5.93,6.7-1.83,1.15-4.76.51-7.19.76-3.19.34-6.36.77-9.54,1.17-.24.03-.53.11-.69.27-5.52,5.89-12.9,4.84-19.87,5.47-1.53.14-3.34.83-4.4,1.89-2.33,2.33-4.28,5.05-6.37,7.63-.47.58-.92,1.19-1.32,1.82-2.63,4.16-6.19,6.07-11.29,5.69-5.14-.39-10.33.06-15.49-.11-3.11-.1-5.45.97-7.44,3.27-4.47,5.16-9.08,10.19-13.49,15.4-2.16,2.56-4.6,3.92-8.02,3.51-1.64-.19-3.39-.26-4.97.09-.97.22-2.28,1.23-2.49,2.11-.4,1.67,1.17,1.97,2.46,1.98,3.17.03,6.38.28,9.48-.18,1.71-.25,3.58-1.41,4.8-2.7,5.04-5.32,9.89-10.8,14.73-16.3,1.84-2.09,3.89-3.03,6.76-2.94,6.08.19,12.16,0,18.25.06,3.15.03,5.51-1.02,7.4-3.72,2.66-3.81,5.55-7.49,8.67-10.93,1.08-1.19,3.08-1.94,4.74-2.11,3.22-.34,6.49-.23,9.74-.1,2.96.12,5.43-.79,7.36-2.98,2.08-2.38,4.59-3.23,7.75-3.15,3.8.1,7.66-.07,11.42-.62,1.64-.24,3.28-1.51,4.59-2.69,2.04-1.82,3.64-4.14,5.72-5.9,1.1-.93,2.8-1.56,4.24-1.6,7.83-.18,15.67-.02,23.49-.2,4.14-.09,8.27-.8,12.41-.94,8.48-.29,16.96-.39,25.44-.52.53,0,1.08.47,1.62.71-.55.33-1.09.93-1.64.94-6.66.12-13.33.12-19.99.26-1.22.02-3.08-.67-3.04,1.79.04,2.37,1.77,2.02,3.2,2.04,6.58.1,13.16.12,19.75.24,1.7.03,3.39.35,5.09.54l-.02.49Zm-62.86,12.81c0-.05,0-.11,0-.16-2.33,0-4.67-.18-6.98.05-2.92.29-6.35.09-8.57,1.58-3.3,2.22-5.77,5.69-8.49,8.71-1.04,1.16-1.34,2.82.1,3.69.64.39,2.37-.23,3.11-.93,2.15-2,3.88-4.46,6.1-6.36,1.27-1.08,2.85-1.71,4.51-1.81,4.06-.26,8.14-.08,12.22-.09,3.16,0,6.32.01,9.48-.05,1.74-.03,2.82-.87,2.83-2.76,0-2.08-1.57-1.84-2.84-1.85-3.82-.05-7.65-.02-11.48-.02Zm-100-5.85c0,.06,0,.12,0,.18-.75,0-1.5,0-2.24,0-5.24-.02-10.48-.07-15.71-.07-2.59,0-4.03,1.61-2.8,3.21.57.74,1.99,1.16,3.03,1.17,11.89.13,23.77.15,35.66.18,1.52,0,2.58-.6,2.59-2.33.01-1.74-1.07-2.34-2.57-2.34-5.98-.02-11.97,0-17.95,0Zm-24.75-12.53c0,.1,0,.19,0,.29,1.07-.08,2.19,0,3.18-.31.77-.24,2.04-1.19,1.96-1.48-.29-.94-1.06-2.42-1.71-2.46-4.29-.23-8.61-.23-12.91-.02-.62.03-1.34,1.58-1.63,2.54-.08.26,1.24,1.33,1.95,1.37,3.05.16,6.11.07,9.17.07Z"/>
  <path d="m216.53,138.51c-1.07.09-1.71.2-2.35.2-15.65-.01-31.3-.06-46.96-.03-1.9,0-3.3-.46-4.49-2.03-2.71-3.57-5.54-7.05-8.41-10.5-2.53-3.04-5.83-4.98-9.65-5.82-2.63-.58-4.5-1.99-6.09-4.02-3.73-4.78-7.46-9.57-11.25-14.31-2.22-2.77-4.92-4.61-8.76-4.36-3.16.21-5.77-1.02-7.92-3.46-3.68-4.17-7.49-8.23-11.3-12.29-1.26-1.34-1.42-2.6-.12-3.91,1.23-1.24,2.54-2.4,3.79-3.61,1.24-1.19,2.57-2.32,3.68-3.63,1.87-2.21,4.2-2.4,6.15-.25.89.98,1.48,2.29,2.48,3.11.75.62,1.94.7,2.94,1.02.22-1.1.53-2.2.61-3.31.03-.4-.47-.85-.77-1.25-2.93-3.87-1.72-7.73,3.01-9.1,2.68-.78,5.11-1.77,7.11-3.85,1.59-1.65,3.52-1.48,4.26.58,2.54,7.08,8.81,10.93,13.55,16.05,2.5,2.7,4.03,5.33,3.64,9.05-.19,1.81-.12,3.69.18,5.47.11.66,1.15,1.46,1.89,1.6.43.08,1.54-1,1.56-1.58.13-3.91.19-7.83-.05-11.73-.07-1.18-.98-2.48-1.85-3.4-3.88-4.13-7.95-8.07-11.81-12.21-2.22-2.38-1.97-5.89.5-7.71.92-.68,2.26-1.01,3.44-1.08,3.27-.18,6.41-.54,9.22-2.51,1.96-1.37,4.51-.39,5.18,2,1.22,4.33,3.82,7.75,6.92,10.79,2.16,2.12,3.42,4.33,3.15,7.47-.14,1.6-.52,3.98,2.05,4.03,2.55.05,2.07-2.3,2.28-3.95.56-4.46-.81-8.14-4.24-11.14-1.49-1.31-2.86-2.84-3.93-4.5-.68-1.06-1.4-2.99-.9-3.72.94-1.37,2.66-2.86,4.19-3.03,4.03-.45,8.15-.27,12.22-.23,2.65.03,5.6,3.09,5.78,5.95.13,1.99-.1,4.02.19,5.98.11.78,1.07,1.84,1.82,2.02,1.39.34,2.07-.65,2.07-2.08,0-2.5-.01-5,.09-7.5.13-3.16,2.05-3.91,4.93-2.71,2.28.95,4.94,1.31,7.44,1.33,2.44.02,4.13.83,5.55,2.68,1.6,2.09,1.74,3.85-.02,5.82-3.05,3.41-6.18,6.76-9.4,10.01-2.43,2.45-3.67,5.25-3.6,8.71.1,4.41.09,8.83.12,13.25,0,1.26.17,2.32,1.84,2.35,1.64.03,1.95-.95,1.96-2.24.04-3.25.36-6.53.02-9.74-.48-4.51,1.87-7.62,4.56-10.6,2.73-3.03,5.72-5.82,8.43-8.87,1.13-1.26,2.07-2.81,2.67-4.39.87-2.27,2.73-3.09,4.49-1.29,1.9,1.95,4.09,2.87,6.62,3.63,5.2,1.56,6.79,6.91,2.89,10.56-4.43,4.14-5.92,8.88-5.51,14.75.36,5.14.1,10.33.17,15.49.02,1.28-.24,2.85,1.82,2.9,2.02.06,2.59-1.26,2.6-2.92.06-6.16-.07-12.34.17-18.49.07-1.66.95-3.43,1.88-4.88,1.88-2.92,4.16-5.58,6.06-8.48,1.57-2.39,2.38-2.65,4.35-.67,1.23,1.24,2.28,2.71,3.64,3.77,1.39,1.08,2.97,2.1,4.64,2.59,4.12,1.21,5.63,4.63,3.29,8.21-1.44,2.21-3.19,4.24-4.49,6.53-.43.76.09,2.06.17,3.12,1.11-.22,2.5-.09,3.26-.73,2.03-1.71,3.73-3.79,5.65-5.63,1.98-1.9,3.72-1.74,4.71.71,1.79,4.41,4.76,7.91,7.8,11.43,2.02,2.35.85,6.4-2.08,6.32-5.76-.15-7.84,4.32-10.92,7.63-.45.48-.75,1.09-1.15,1.63-2.08,2.83-4.55,4.64-8.4,4.21-2.63-.29-5.33-.01-7.99.1-1.41.06-2.68.44-2.69,2.26-.01,1.96,1.3,2.34,2.84,2.34,4.08,0,8.17.05,12.25-.13,3.49-.15,5.57-2.64,7.65-5.06,1.89-2.2,3.72-4.48,5.86-6.42,3.32-3,8.66-1.87,10.56,2.1,1.33,2.77,2.54,5.59,3.75,8.41,1.11,2.61.61,3.92-1.98,6.27-1.26,1.14-3.74,1.72-2.84,4.1.89,2.35,3.24,1.49,5.03,1.57,2.92.13,4.11.92,4.2,3.43.09,2.38-1.73,2.98-3.61,3.37-.57.12-1.15.17-1.73.18-16,.14-31.99.23-47.99.43-2.46.03-4.33-.7-5.86-2.63-6.06-7.6-12.37-15.01-18.16-22.8-3.52-4.73-7.86-7.77-13.57-8.32-5.55-.54-10.03-2.48-13.46-6.96-1.46-1.91-3.19-3.65-5.03-5.19-.67-.56-2.02-.32-3.06-.44-.03,1.06-.53,2.53-.02,3.1,3.56,3.96,7.24,7.81,11.08,11.5.85.82,2.43.92,3.71,1.23,3.38.82,7.15.92,10.07,2.54,3.08,1.7,5.64,4.61,7.93,7.4,4.53,5.51,8.72,11.31,13.03,16.99.24.31.38.7.76,1.44Z"/>
  <path d="m168.62,293.4c-.36-1.74-1.01-3.47-1.05-5.21-.2-9.41-.33-18.82-.32-28.24,0-2.77-.67-5.04-2.76-6.9-2.25-2-3.39-4.48-3-7.56.05-.41.15-.96-.06-1.22-.49-.62-1.14-1.53-1.74-1.54-.57-.01-1.62.93-1.66,1.51-.17,2.4-.31,4.87.07,7.22.21,1.32,1.27,2.69,2.3,3.66,1.71,1.61,2.47,3.36,2.43,5.72-.13,7.58-.07,15.16-.18,22.74-.02,1.19-.25,2.61-.94,3.5-.65.84-2.22,1.72-3.05,1.47-.98-.3-1.91-1.67-2.31-2.78-.4-1.11-.07-2.47-.16-3.72-.19-2.55-1.14-3.36-3.69-3.26-.83.03-1.66.08-2.5.08-6.33,0-8.9-3.95-6.48-9.84.57-1.38,1.89-3.22-.02-4.17-1.94-.97-2.5,1.26-3.34,2.49-.28.41-.51.85-.76,1.29-.98,1.72-1.73,3.88-4.43,2.75-2.81-1.18-4.13-3.89-3.25-6.41.28-.79.76-1.56.8-2.35.03-.7-.23-1.77-.72-2.04-.5-.28-1.67-.03-2.13.41-4.87,4.66-4.64,4.47-9.34.07-6.79-6.36-4.44-10.16,2.33-14.59,3.31-2.17,6.51-4.61,9.34-7.36,1.26-1.22,1.87-3.46,2.11-5.32.35-2.68-.12-5.47.19-8.17.17-1.42.91-3.24,2-4.01,3.16-2.24,6.49-4.36,10.01-5.94,6.34-2.84,11.88-6.59,16.16-12.12.4-.52.93-.96,1.41-1.41,2.64-2.45,3-2.41,5.96-.45,8.3,5.52,16.62,11,24.96,16.46,2.1,1.38,3.21,3.04,3.15,5.75-.16,7.16-.02,14.33,0,21.49,0,.58.2,1.28-.05,1.73-.64,1.13-1.49,2.15-2.25,3.21-.74-1.05-2.1-2.09-2.11-3.15-.03-2.39.18-4.54-2.41-5.89-.53-.28-.59-1.63-.69-2.5-.18-1.5.37-3.29-2.22-3.28-2.72,0-2.25,1.86-2.26,3.47-.04,8.41-.06,16.83-.09,25.24,0,.5,0,1,0,1.5.02,1.72-.43,3.54-2.31,3.52-1.77-.02-2.1-1.77-1.97-3.43.05-.62.02-1.52-.36-1.87-1.92-1.76-1.76-4.01-1.76-6.26-.03-12.16-.07-24.33-.12-36.49,0-1.12.28-2.43-1.48-2.64-1.94-.24-2.92.28-2.89,2.52.09,9,.03,18,.03,26.99,0,1.17.15,2.37-.08,3.49-.19.9-.64,2.11-1.34,2.46-2.31,1.14-2.54,3.04-2.55,5.21-.07,8.5-.08,17-.33,25.49-.08,2.87-.79,5.72-1.21,8.58-.31.03-.62.07-.93.1Z"/>
</svg>