<?xml version="1.0" encoding="UTF-8"?>
<svg id="Layer_1" data-name="Layer 1" xmlns="http://www.w3.org/2000/svg" viewBox="0 0 451.46 490.62">
  <defs>
    <style>
      .cls-1, .cls-2 {
        fill: #6d4b9f;
      }

      .cls-3, .cls-4 {
        fill: #3c1478;
      }

      .cls-4, .cls-2 {
        fill-rule: evenodd;
      }
    </style>
  </defs>
  <path class="cls-3" d="m307.78,30.74c6.53,2.21,10.03,9.3,7.82,15.83-2.21,6.53-9.3,10.03-15.83,7.82-13.18-4.51-40.46,17.99-61.8,44.28,5.12,9.76,9.24,19.61,12.02,28.83,4.29,14.25,5.43,27.5,2.24,37.56-3.96,12.48-13.03,20.09-28.49,20.09-18.92,0-30.12-7.07-35.39-18.66-4.69-10.32-3.44-23.37,1.9-37.33,3.91-10.24,10.18-21.34,17.84-32.29-16.73-26.24-39.73-48.61-56.74-43.38-6.59,2.02-13.56-1.67-15.58-8.26s1.67-13.56,8.25-15.58c27.47-8.45,58.39,15.63,80.34,46.74,26.74-29.86,61.78-53.03,83.42-45.64h0Zm-86.32,91.32c-3.24,5.51-5.92,10.9-7.86,15.99-3.04,7.95-4.18,14.45-2.48,18.18,1.1,2.42,4.99,3.9,12.62,3.9,2.67,0,4.13-.99,4.65-2.6,1.6-5.05.58-13.24-2.33-22.9-1.22-4.05-2.76-8.27-4.58-12.56h0Z"/>
  <path class="cls-1" d="m450.37,207.85c1.32,6.77-3.1,13.34-9.87,14.66-6.77,1.32-13.34-3.1-14.66-9.87-2.69-13.63-35.82-25.97-69.27-31.31-5.88,9.3-12.34,17.78-18.9,24.76-10.22,10.86-21.15,18.49-31.49,20.76-12.73,2.8-23.82-1.25-31.55-14.63-9.47-16.4-8.97-29.61-1.6-39.91,6.61-9.24,18.56-14.7,33.34-17.06,10.94-1.74,23.68-1.9,36.88-.75,14.34-27.59,22.2-58.68,9.16-70.79-5.05-4.69-5.33-12.59-.64-17.64,4.69-5.05,12.59-5.33,17.64-.64,21.04,19.55,15.65,58.36-.31,92.91,39.24,8.24,76.82,27.03,81.25,49.51h0Zm-122.26-29.13c-6.45-.07-12.48.29-17.81,1.15-8.39,1.34-14.57,3.59-16.93,6.9-1.58,2.21-.94,6.35,2.87,12.94,1.34,2.32,2.96,3.09,4.67,2.72,5.14-1.13,11.69-6.09,18.59-13.43,2.91-3.09,5.8-6.54,8.61-10.27h0Z"/>
  <path class="cls-3" d="m368.27,419.79c-5.18,4.53-13.06,4.01-17.59-1.17-4.53-5.18-4.01-13.05,1.17-17.59,10.47-9.15,4.6-44.03-7.5-75.68-11.01-.44-21.59-1.79-30.89-3.98-14.51-3.41-26.58-9.08-33.72-16.9-8.8-9.64-10.84-21.29-3.11-34.68,9.45-16.37,21.14-22.53,33.74-21.3,11.33,1.1,22.02,8.71,31.44,20.32,6.95,8.57,13.46,19.54,19.08,31.59,31.07-1.37,61.93-10.1,65.9-27.45,1.54-6.72,8.23-10.92,14.95-9.38,6.72,1.54,10.92,8.23,9.38,14.95-6.42,28-42.73,42.74-80.64,46.19,12.48,38.08,15.01,80.01-2.24,95.08h0Zm-35.9-120.41c-3.16-5.6-6.48-10.62-9.9-14.83-5.37-6.61-10.41-10.84-14.44-11.23-2.71-.26-5.98,2.37-9.8,8.99-1.33,2.31-1.19,4.08-.02,5.37,3.55,3.88,11.12,7.07,20.92,9.38,4.15.98,8.59,1.76,13.24,2.33h0Z"/>
  <path class="cls-1" d="m299.77,431.09c6.53-2.21,13.62,1.29,15.83,7.82,2.21,6.53-1.29,13.62-7.82,15.83-21.65,7.39-56.68-15.77-83.42-45.63-21.94,31.1-52.86,55.19-80.34,46.74-6.58-2.02-10.28-9-8.25-15.58,2.02-6.59,9-10.28,15.58-8.26,17,5.23,40.01-17.14,56.74-43.38-7.67-10.94-13.93-22.06-17.84-32.29-5.34-13.96-6.59-27.01-1.9-37.33,5.26-11.59,16.47-18.66,35.39-18.66,15.46,0,24.53,7.62,28.49,20.09,3.19,10.05,2.05,23.3-2.24,37.56-2.77,9.21-6.9,19.07-12.02,28.83,21.35,26.28,48.62,48.78,61.8,44.28h0Zm-86.17-83.66c1.95,5.08,4.63,10.48,7.86,15.99,1.82-4.3,3.36-8.52,4.58-12.57,2.91-9.67,3.93-17.85,2.33-22.9-.52-1.61-1.98-2.6-4.65-2.6-7.63,0-11.52,1.48-12.62,3.9-1.69,3.73-.56,10.23,2.48,18.18h0Z"/>
  <path class="cls-3" d="m99.61,401.04c5.18,4.53,5.7,12.41,1.17,17.59-4.53,5.18-12.41,5.7-17.59,1.17-17.25-15.07-14.72-57-2.24-95.08-37.91-3.45-74.22-18.19-80.64-46.19-1.54-6.72,2.66-13.41,9.38-14.95,6.72-1.54,13.41,2.66,14.95,9.38,3.97,17.35,34.83,26.08,65.9,27.45,5.62-12.05,12.13-23.02,19.08-31.59,9.42-11.61,20.12-19.22,31.44-20.32,12.61-1.23,24.29,4.94,33.74,21.3,7.73,13.39,5.69,25.04-3.11,34.68-7.14,7.82-19.21,13.48-33.72,16.9-9.31,2.19-19.88,3.53-30.89,3.98-12.1,31.65-17.97,66.53-7.5,75.68h0Zm29.38-116.48c-3.41,4.2-6.74,9.23-9.9,14.83,4.65-.58,9.09-1.36,13.24-2.33,9.81-2.31,17.37-5.49,20.92-9.38,1.17-1.28,1.31-3.06-.02-5.37-3.82-6.62-7.09-9.26-9.8-8.99-4.03.39-9.07,4.62-14.44,11.23h0Z"/>
  <path class="cls-1" d="m25.61,212.64c-1.32,6.77-7.88,11.19-14.66,9.87s-11.19-7.88-9.87-14.66c4.43-22.49,42.02-41.27,81.25-49.51-15.96-34.55-21.35-73.35-.31-92.91,5.05-4.69,12.94-4.41,17.64.64,4.69,5.05,4.41,12.94-.64,17.64-13.04,12.11-5.18,43.2,9.16,70.79,13.21-1.15,25.94-.99,36.88.75,14.79,2.36,26.73,7.81,33.34,17.06,7.37,10.31,7.87,23.52-1.6,39.91-7.73,13.38-18.81,17.43-31.55,14.64-10.33-2.27-21.27-9.89-31.49-20.76-6.56-6.98-13.02-15.47-18.9-24.76-33.45,5.34-66.58,17.68-69.27,31.31h0Zm115.55-32.77c-5.34-.85-11.36-1.21-17.81-1.14,2.82,3.73,5.7,7.18,8.61,10.27,6.9,7.33,13.44,12.29,18.59,13.43,1.71.37,3.34-.39,4.68-2.72,3.81-6.59,4.45-10.73,2.87-12.94-2.36-3.31-8.54-5.56-16.92-6.9h0Z"/>
  <circle class="cls-3" cx="225.74" cy="24.35" r="24.35" transform="translate(48.9 166.75) rotate(-45)"/>
  <path class="cls-2" d="m438.18,122.65c6.72,11.65,2.73,26.54-8.91,33.27s-26.54,2.73-33.27-8.91c-6.73-11.65-2.73-26.54,8.91-33.27,11.65-6.73,26.54-2.73,33.27,8.91Z"/>
  <path class="cls-4" d="m438.18,367.96c-6.73,11.65-21.62,15.64-33.27,8.91-11.65-6.73-15.64-21.62-8.91-33.27,6.73-11.65,21.62-15.64,33.27-8.91,11.65,6.72,15.64,21.62,8.91,33.27Z"/>
  <circle class="cls-1" cx="225.74" cy="466.27" r="24.35" transform="translate(-263.58 296.19) rotate(-45)"/>
  <path class="cls-4" d="m55.47,343.61c6.73,11.65,2.73,26.54-8.91,33.27-11.65,6.73-26.54,2.73-33.27-8.91-6.73-11.65-2.73-26.54,8.91-33.27,11.65-6.73,26.54-2.73,33.27,8.91Z"/>
  <circle class="cls-1" cx="34.38" cy="134.83" r="24.35" transform="translate(-68.82 41.49) rotate(-33.57)"/>
  <circle class="cls-3" cx="225.73" cy="245.31" r="40.62" transform="translate(-76.69 105.06) rotate(-22.5)"/>
</svg>